<?xml version="1.0" encoding="UTF-8" standalone="no"?>
<!-- Created with Inkscape (http://www.inkscape.org/) -->

<svg
   width="94.247719mm"
   height="58.866486mm"
   viewBox="0 0 94.247719 58.866486"
   version="1.1"
   id="svg5"
   inkscape:version="1.1 (c68e22c387, 2021-05-23)"
   sodipodi:docname="glista_test.svg"
   xmlns:inkscape="http://www.inkscape.org/namespaces/inkscape"
   xmlns:sodipodi="http://sodipodi.sourceforge.net/DTD/sodipodi-0.dtd"
   xmlns="http://www.w3.org/2000/svg"
   xmlns:svg="http://www.w3.org/2000/svg">
  <sodipodi:namedview
     id="namedview7"
     pagecolor="#ffffff"
     bordercolor="#666666"
     borderopacity="1.0"
     inkscape:pageshadow="2"
     inkscape:pageopacity="0.0"
     inkscape:pagecheckerboard="0"
     inkscape:document-units="mm"
     showgrid="false"
     fit-margin-top="0"
     fit-margin-left="0"
     fit-margin-right="0"
     fit-margin-bottom="0"
     inkscape:zoom="0.77771465"
     inkscape:cx="-304.09611"
     inkscape:cy="246.23427"
     inkscape:window-width="2482"
     inkscape:window-height="1411"
     inkscape:window-x="-9"
     inkscape:window-y="-9"
     inkscape:window-maximized="1"
     inkscape:current-layer="layer1" />
  <defs
     id="defs2">
    <style
       id="style204">.cls-1{fill:#fff;}.cls-2{fill:#00604d;}.cls-3{fill:#00864b;}.cls-4{fill:#83b164;}.cls-5{fill:#e2b566;}.cls-6{fill:#ce7c3c;}.cls-7{fill:#fdfdfd;}.cls-8{fill:#231f20;}</style>
  </defs>
  <g
     inkscape:label="Warstwa 1"
     inkscape:groupmode="layer"
     id="layer1"
     transform="translate(-49.834899,-83.51521)">
    <g
       id="g493"
       transform="matrix(0.26458333,0,0,0.26458333,49.828236,83.50713)">
      <ellipse
         class="cls-1"
         cx="18.379999"
         cy="32.279999"
         rx="16.299999"
         ry="17.43"
         id="ellipse210" />
      <circle
         class="cls-1"
         cx="71.300003"
         cy="34.650002"
         r="14.66"
         id="circle212" />
      <path
         class="cls-2"
         d="m 411.79,94.33 c 7.5,4.4 14.1,3.19 19.54,-3.17 1.54,-1.8 1.91,-2.88 4.54,-3.67 0.85,-0.25 2.14,0.24 2.92,-0.16 2.18,-1.13 3.51,-3.93 4.47,-6 0.83,-1.8 -0.87,-1.82 1.42,-3 0.67,-0.33 2.12,0 2.94,0 1.91,-0.06 6.75,0.13 4.33,-3.56 -0.39,-0.6 -4.6,-2.19 -5.54,-2.58 -2.32,-1 -4.58,-1.4 -7,-0.07 -3.77,2.11 -3.39,5.82 -2.46,9.42 -3,-0.4 -6.43,-1.34 -9.35,-0.33 -3.71,1.29 -5.15,4.64 -9.44,4.62 -2.75,0 -2.32,-0.85 -4.49,0.58 -2.66,1.74 -3,5.2 -1.92,7.92"
         transform="translate(-165.35,122.83)"
         id="path214" />
      <path
         class="cls-3"
         d="m 430.79,92.33 c 3.79,2.08 10.69,5.49 8.36,-2.41 -0.74,-2.5 0.14,-2.63 -2.83,-2.45 -2.82,0.17 -4.69,2.32 -5.53,4.86"
         transform="translate(-165.35,122.83)"
         id="path216" />
      <path
         class="cls-3"
         d="m 411.79,94.33 c -1.5,-3.68 0.23,-6.58 3,-9 -2.89,-1 -8,-3.89 -9.91,-0.13 -2.1,4 4,7.72 6.91,9.13"
         transform="translate(-165.35,122.83)"
         id="path218" />
      <path
         class="cls-3"
         d="m 441.79,84.33 c -0.21,5.25 11.41,2.38 6.12,-4.34 -3.8,-4.83 -4.59,1.36 -6.12,4.34"
         transform="translate(-165.35,122.83)"
         id="path220" />
      <path
         class="cls-3"
         d="m 415.79,85.33 c 4.83,1.35 6.07,-1 10,-3.26 3.5,-2 7.45,-1 11.21,-0.53 -1.27,-4.6 -0.46,-9.93 5.45,-10.29 3.76,-0.23 10.89,2.82 9.35,7.08 6.2,0.93 4.85,-2.94 2.32,-6.2 -3.61,-4.65 -4,-8.67 -0.23,-12.6 3.31,-3.44 9.28,-5.16 13.75,-6.43 5.23,-1.49 6.4,-5 11.94,-6.9 1.32,-0.45 5.25,-0.8 6.08,-1.83 0.62,-0.76 0.57,-4.27 1.08,-5.51 0.89,-2.17 2.67,-2.46 0.31,-3.22 -2.61,-0.84 -9.35,4.35 -11.63,5.52 -3.13,1.6 -5.6,2.47 -8.25,4.38 a 81.23,81.23 0 0 1 -13.87,8.38 c -3.57,1.62 -6.5,4.08 -10.7,3.88 -4.2,-0.2 -5.82,-3.18 -9.8,-4.19 -4.61,-1.18 -8.71,-1.23 -11.1,3.11 -0.81,1.49 -1.22,3 -2.07,4.48 -0.29,0.48 -1.2,0.62 -1.54,1 -1.13,1.39 0.78,0.63 0.37,1.84 0.1,-0.3 -3.55,1.35 -3.92,1.62 -1.31,1 -1.23,1.48 -2.46,2.83 -2.6,2.86 -9.17,8 -5.36,12.86 1.57,2 1.29,0.39 2.08,-0.19 -0.46,0.34 1.48,-2.27 1.37,-2.06 2.68,-5.13 4.21,-9 9.57,-11.32 3.37,-1.45 1.87,-1.15 3.77,-4.41 a 7.64,7.64 0 0 1 5.41,-3.74 c 1.95,-0.35 6.11,0 7.36,2 2.25,3.6 -1.09,2 -2.73,3.52 -1.89,1.75 -0.93,4.36 -2.06,6.45 -1.59,2.91 -4.12,2.78 -6.74,4.25 -4.12,2.32 -4.61,7.2 -8.95,9.44"
         transform="translate(-165.35,122.83)"
         id="path222" />
      <path
         class="cls-4"
         d="m 408.79,83.33 c 7.24,2.41 7.7,2.19 12.32,-3.87 2.9,-3.8 8.86,-4 10.69,-8.53 0.83,-2 -0.06,-4.07 1.74,-5.74 1.42,-1.33 3.36,0.58 3.47,-2.31 0.18,-4.62 -9.57,-3.38 -11.62,-1.73 -1.84,1.48 -1.41,4 -2.6,5.26 -1.7,1.75 -3.14,0.85 -5.24,1.92 -4.09,2.07 -8.86,10.86 -8.76,15"
         transform="translate(-165.35,122.83)"
         id="path224" />
      <path
         class="cls-2"
         d="m 470.79,52.33 c 4.25,0.48 8.14,0.94 12.17,-1 1.83,-0.9 7.3,-3.65 5.59,-6 -1.71,-2.35 -7,0.29 -8.61,0.84 -2,0.66 -4.63,1.31 -6.22,2.74 -1.31,1.17 -0.93,2.83 -2.93,3.5"
         transform="translate(-165.35,122.83)"
         id="path226" />
      <path
         class="cls-5"
         d="m 488.79,47.33 c 0,-3.28 -0.7,-10.29 3,-12 2.43,-1.13 6.34,1.8 6.71,3.87 0.37,2.07 -1.91,4.13 -0.71,6.13 l -9,2"
         transform="translate(-165.35,122.83)"
         id="path228" />
      <path
         class="cls-6"
         d="m 497.79,45.33 c 2.82,-1.74 5.73,-3.38 8.47,-5.25 3.44,-2.36 7.48,-4.06 5.37,-7.72 -4.78,-8.28 -15.55,-2.16 -19.84,3 2.86,0.15 6.11,0.5 6.71,3.87 0.39,2.23 -1.91,4.12 -0.71,6.13"
         transform="translate(-165.35,122.83)"
         id="path230" />
      <path
         class="cls-2"
         d="m 506.79,28.33 6,5 a 32.31,32.31 0 0 0 2.27,-35.45 42.94,42.94 0 0 0 -13.39,-15.14 c -2.64,-1.81 -6.34,-5 -9.37,-6.08 -0.93,-0.32 -1.53,0.12 -2.58,0 -0.57,-0.06 -1.14,-0.47 -1.7,-0.51 -1.66,-0.12 -0.85,0.73 -2,0.9 0.21,0 -5.8,-2.32 -6.61,-2.62 -1.67,-0.61 -3.5,-1.87 -5.57,-2.11 -4.08,-0.48 -7.1,0.39 -2.8,4.1 5.78,5 14.65,6.68 21,10 a 38.45,38.45 0 0 1 12,9.85 c 1.32,1.66 2,3.26 3.71,4.4 2.41,1.65 5.59,1 6.81,4.44 2,5.59 -4.8,8.45 -6.41,12.77 -1.18,3.17 1.2,7.93 -1.31,10.47"
         transform="translate(-165.35,122.83)"
         id="path232" />
      <path
         class="cls-3"
         d="m 496.79,19.33 c -0.71,3.14 -1.43,6.29 -2.14,9.43 4.34,-2.06 8.47,-2.05 13.14,-1.43 v -9 l -11,1"
         transform="translate(-165.35,122.83)"
         id="path234" />
      <path
         class="cls-5"
         d="m 495.79,6.33 c -4.91,4.64 -0.1,8 1,13 0.1,-2.56 2.25,-1.12 3.75,-2 1.7,-1 1.61,-4 3.22,-6.5 1.61,-2.5 4.16,-3.14 -0.66,-4.59 -2,-0.61 -5.25,0 -7.31,0.09"
         transform="translate(-165.35,122.83)"
         id="path236" />
      <path
         class="cls-7"
         d="m 496.79,19.33 c 5.33,-0.49 10,0.56 13,-4 -2.28,0.57 -13,1.63 -13,4"
         transform="translate(-165.35,122.83)"
         id="path238" />
      <path
         class="cls-6"
         d="m 509.79,15.33 c 4.6,-4.86 7.89,-12.88 -1.59,-14.5 a 13.32,13.32 0 0 0 -12.41,5.5 c 2,-0.09 9.57,-1.19 10.28,1.28 0.57,2 -1.39,1.88 -2.31,3.22 a 9.69,9.69 0 0 0 -2,6.5 l 8,-2"
         transform="translate(-165.35,122.83)"
         id="path240" />
      <path
         class="cls-3"
         d="m 495.79,6.33 c -1.73,1.63 -1.92,7 -2.46,7.28 -2.37,1.33 -4.25,-6.1 -3.55,-7.93 0.57,-1.47 2.45,-1.82 2.94,-3.78 A 5.63,5.63 0 0 0 490.1,-4 c -2.79,-1.58 -7.69,-0.68 -6.31,3.33 -4.21,-0.81 -8.53,-1 -2.75,-3.75 3.26,-1.58 5.96,-2.84 5.96,-6.85 0,-1.07 -1.74,-4.05 -0.85,-4.64 1.92,-1.27 9.53,4.5 11.21,5.85 a 45.17,45.17 0 0 1 9.43,10.39 c -4.08,1 -8.58,2.22 -11,6"
         transform="translate(-165.35,122.83)"
         id="path242" />
      <path
         class="cls-3"
         d="m 519.79,14.33 c 2,-18.24 -10.41,-34.31 -28,-38 6.82,4.41 15.55,8.72 20,15.8 4.3,6.81 6.33,14.3 8,22.2"
         transform="translate(-165.35,122.83)"
         id="path244" />
      <path
         class="cls-2"
         d="m 348.79,-19.67 c 5.39,3.14 11.6,6 16.54,9.72 3.37,2.57 6.21,5.12 10.2,7.19 7.36,3.84 20.4,10.07 28.93,6.6 7.4,-3 4.3,-8.54 0.33,-12.51 0.93,4.63 -11,2.63 -13.58,2.16 -4.73,-0.85 -8.83,-1.32 -12.83,-4.43 -2.24,-1.74 -3.8,-3.9 -6.13,-5.58 a 77.2,77.2 0 0 0 -11.9,-7.57 c -3.06,-1.52 -5.83,-3.45 -8.56,-1.58 -1.61,1.1 -3.38,4 -3,6"
         transform="translate(-165.35,122.83)"
         id="path246" />
      <path
         class="cls-4"
         d="m 489.79,5.33 c 8.81,-4.25 -2.91,-14.13 -6,-8.84 -1.8,3.06 4.39,7.21 6,8.84"
         transform="translate(-165.35,122.83)"
         id="path248" />
      <path
         class="cls-2"
         d="m 294.79,1.33 c 7.41,2.44 17,-1 22.7,-6.52 a 110.5,110.5 0 0 1 8.93,-8 c 1.56,-1.21 4.49,-3.7 4.24,-6.21 -0.3,-3 -4.15,-4.29 -6.64,-3.34 -3.13,1.19 -6.21,5 -8.83,7.16 -6,4.87 -18.15,9.21 -20.4,16.92"
         transform="translate(-165.35,122.83)"
         id="path250" />
      <path
         class="cls-3"
         d="m 276.79,-24.67 c 0.76,-3.39 0.89,-2.56 3.71,-2.78 1.44,-0.11 8,-0.2 9.09,0.76 0.47,0.43 0,1.49 0.41,2 0.41,0.51 0.14,1.38 0.44,1.92 0.12,0.22 1.09,0 1.25,0.17 a 11.4,11.4 0 0 0 9.18,4.44 c 13.69,0.49 20.32,-11 18.92,-23.53 h 15 c -7.13,2.14 -10.19,5.6 -10.85,13.23 -0.14,1.69 0.47,4.43 -0.29,5.88 -1.13,2.14 -5.38,4.44 -7.22,5.95 a 115.32,115.32 0 0 1 -15.55,10.9 c -1.78,1 -3.4,1.69 -4.61,3.49 -0.52,0.77 -0.74,2.87 -1.39,3.33 -2.2,1.54 -10.88,-0.29 -13.59,-0.42 3.85,-4.95 3.5,-7.51 3.5,-13.34 1.26,3.15 0,7.79 1.31,10.39 3.46,7.08 6.18,-7 6.1,-9.45 -0.33,-10.23 -7.51,-9.89 -15.41,-12.94"
         transform="translate(-165.35,122.83)"
         id="path252" />
      <path
         class="cls-6"
         d="m 264.79,-5.67 c 2.69,-0.46 5.59,-7.1 7.25,-9.39 1.66,-2.29 4.54,-6.64 -0.25,-7.61 3.76,-0.75 6.83,-1.68 9.65,1.58 2.09,2.42 3.53,7.26 3.35,10.42 -0.17,2.84 -1.27,4 -2.92,6.58 -2.38,3.75 -2.09,4.43 -6.19,3.29 -4.1,-1.14 -7.92,-1.73 -10.89,-4.87"
         transform="translate(-165.35,122.83)"
         id="path254" />
      <path
         class="cls-2"
         d="m 279.79,-22.67 c 3,2.1 3.94,6.45 4.94,9.8 0.71,2.36 0.9,11.82 2.57,12.47 5.95,2.3 4.82,-14.23 4.08,-16.34 -1.67,-4.82 -6.54,-6.34 -11.59,-6.93 v 1"
         transform="translate(-165.35,122.83)"
         id="path256" />
      <path
         class="cls-6"
         d="m 410.79,-3.67 c 3.2,0.3 8.18,-4.68 10.34,-6.72 1.72,-1.62 1.33,-0.1 2.71,-3.28 a 28.26,28.26 0 0 0 1.39,-4.33 c 1.23,-5.17 0.26,-7.66 -5.42,-6.94 -4.48,0.57 -7.48,2.48 -11,5.32 5.45,-1.36 4.78,14.12 2,16"
         transform="translate(-165.35,122.83)"
         id="path258" />
      <path
         class="cls-3"
         d="m 443.79,-24.67 c 4.24,0.5 6.76,7 9,9.88 3.12,4 4.75,7.15 9.85,9.06 0.71,0.27 13.13,2.77 13.13,2.12 0,-1.15 -9.41,-4.72 -10.85,-6.34 a 15.16,15.16 0 0 1 -2.8,-6 c -0.43,-1.82 1,-5.71 0.49,-7.22 -0.4,-1.14 -1.77,-1.54 -2.88,-2.56 -1.74,-1.61 -2.37,-5.47 -4.07,-6.48 -2.24,-1.33 -7.49,1.71 -9.89,2.51 3.44,3.16 -2.09,2.35 -2,5"
         transform="translate(-165.35,122.83)"
         id="path260" />
      <path
         class="cls-5"
         d="m 408.79,-4.67 c 3.85,3.48 3.53,-4.44 3.6,-6.48 0.12,-3.56 0.55,-10.22 -4.22,-7.77 -2.89,1.48 -3,3.72 -3.2,6.66 -0.23,4.16 0.86,4.63 3.82,7.59"
         transform="translate(-165.35,122.83)"
         id="path262" />
      <path
         class="cls-3"
         d="m 374.79,-14.67 c 4.7,6.15 12.31,8.19 19.54,9.25 1.19,0.18 7.53,0.12 8.46,-1.25 0.6,-0.89 -0.09,-6.74 0.46,-8.34 a 15,15 0 0 1 5.82,-7.89 c 1.35,-0.85 2.94,-0.7 4,-1.17 l 1.57,-0.77 c 5,-1.46 10.37,-1.43 15.18,-3.83 -1.74,-0.84 -10,-5 -9.77,-7.18 0.13,-1.08 1.57,-2.7 1.77,-4.24 a 7.74,7.74 0 0 0 -1,-5.58 c -4.07,2.19 -5.24,6.17 -8.71,9.12 -3.47,2.95 -6.42,6 -9.95,8.76 -5.08,4 -3.07,9.82 -8.92,13.57 -6.08,3.88 -12.29,2 -18.42,-0.45"
         transform="translate(-165.35,122.83)"
         id="path264" />
      <path
         class="cls-5"
         d="m 261.79,-6.67 c 5,2.08 5,-0.89 7.39,-4.8 1.63,-2.62 7.93,-7.64 4.11,-10.63 -4.85,-3.79 -17.18,10.2 -11.5,15.43"
         transform="translate(-165.35,122.83)"
         id="path266" />
      <path
         class="cls-7"
         d="m 402.79,-6.67 c 3.12,2 1.87,-8.36 2.6,-9.86 1.05,-2.15 6.46,-5.59 8.4,-7.14 -7.56,-4.06 -12.28,11.93 -11,17"
         transform="translate(-165.35,122.83)"
         id="path268" />
      <path
         class="cls-2"
         d="m 178.79,-19.67 c 4.9,4.73 10.13,11 17.12,12.33 5.15,1 12.77,-1.11 17.48,-2.9 0.52,-0.2 1.37,-0.18 1.92,-0.37 0.55,-0.19 2.25,-1.25 3,-1.65 1.21,-0.63 2.4,-0.74 3.48,-1.76 0.78,-0.72 0.54,-1.59 1,-2.09 1.57,-1.54 3.52,-2.74 5.09,-5.35 1.31,-2.17 1.86,-5.84 4.85,-6.21 -1.3,-2.15 -8.25,-3.29 -11,-5 4,7.51 -15.12,11.68 -19.65,12.56 a 53.58,53.58 0 0 1 -12.42,0.93 c -4,-0.17 -6.85,-1.44 -10.93,-0.49"
         transform="translate(-165.35,122.83)"
         id="path270" />
      <path
         class="cls-6"
         d="m 257.79,-9.67 4,3 c -6.05,-5.62 4,-12.45 8,-16 -5.93,3 -11.09,5.68 -12,13"
         transform="translate(-165.35,122.83)"
         id="path272" />
      <path
         class="cls-6"
         d="m 471.79,-8.67 c 0.66,-1.19 0.95,-9.19 0.48,-10.4 -1.18,-3.06 -6.17,-2.2 -8.48,-0.6 2.16,-1.73 4.08,-4.29 7,-4 2.37,0.23 7.72,3.28 9.53,4.76 2.16,1.78 4.77,6.37 3.64,9.21 -1.85,4.71 -9.18,3.9 -12.17,1"
         transform="translate(-165.35,122.83)"
         id="path274" />
      <path
         class="cls-3"
         d="m 248.79,-53.67 c -0.6,-1.77 0.12,-2.84 0.09,-4.5 0,-0.32 0.83,-0.24 0.82,-0.71 a 13.68,13.68 0 0 0 -1.11,-2.5 c -0.35,-1 -1.84,-5.78 -2.71,-6.08 -2,-0.7 -0.71,0.84 -1.61,1.41 -1.82,1.15 -4.86,2.95 -5.17,4.7 -0.66,3.7 2.46,11 2.72,14.88 0.5,7.3 -1.18,14.5 2.87,21.15 a 80.72,80.72 0 0 0 6.12,8.25 c 1.83,2.28 4.48,9.77 7.07,6.93 0.71,-0.78 1.14,-4 1.8,-5.09 a 14.29,14.29 0 0 1 4.11,-4.44 c -3.27,1.22 -8.29,4.32 -9.39,-0.52 -0.77,-3.45 2.52,-7.86 4.39,-10.48 -4.39,-1.92 -12.05,-4.59 -11.81,-10.76 0.1,-2.36 1.42,-3.33 1.81,-5.74 a 42.74,42.74 0 0 0 0,-6.5"
         transform="translate(-165.35,122.83)"
         id="path276" />
      <path
         class="cls-5"
         d="m 463.79,-19.67 c -2.3,4.33 4.71,8.92 8,11 0.66,-1.19 0.95,-9.19 0.48,-10.4 -1.18,-3.06 -6.17,-2.2 -8.48,-0.6"
         transform="translate(-165.35,122.83)"
         id="path278" />
      <path
         class="cls-3"
         d="m 214.79,-9.67 c 1.84,-0.28 4.79,-1 5,-3 -2,0.55 -4.21,0.77 -5,3"
         transform="translate(-165.35,122.83)"
         id="path280" />
      <path
         class="cls-6"
         d="m 372.79,-18.67 c 6.56,3.86 18.24,8.89 23.15,-0.66 2.83,-5.51 -3.7,-4.48 -7.3,-4.58 a 28.06,28.06 0 0 1 -11.85,-2.76 c 0,0.91 1.38,6.17 1.32,6.32 -0.54,1.3 -4.21,1.52 -5.32,1.68"
         transform="translate(-165.35,122.83)"
         id="path282" />
      <path
         class="cls-3"
         d="m 222.79,-14.67 c 3.61,-0.69 6,-3.12 8.35,-5.88 1.18,-1.38 5.7,-8.08 0.87,-6.88 -2.37,0.59 -3.26,4.69 -4.4,6.53 -1.14,1.84 -5.12,4.66 -4.82,6.23"
         transform="translate(-165.35,122.83)"
         id="path284" />
      <path
         class="cls-3"
         d="m 328.79,-14.67 c 4.53,-1.07 1.16,-5.64 0,0"
         transform="translate(-165.35,122.83)"
         id="path286" />
      <path
         class="cls-4"
         d="m 258.79,-30.67 c -2.53,3.55 -8.48,14.57 0.26,12.73 4.84,-1 8.76,-4 13.57,-4.9 3,-0.54 4.21,-0.31 4.67,-3.33 0.39,-2.62 -1.43,-5.69 -3.86,-7.33 -3.53,-2.38 -4,-0.42 -6.88,1 -2.56,1.29 -5.41,0.11 -7.76,1.81"
         transform="translate(-165.35,122.83)"
         id="path288" />
      <path
         class="cls-2"
         d="m 424.79,-16.67 c 2,0.26 5,-1.83 6.8,-2.78 3.14,-1.69 5.77,-3.91 9.24,-5.05 1.51,-0.5 4.87,-0.62 5.7,-2.38 0.53,-1.12 -0.91,-4.09 -2.85,-4.78 -1.94,-0.69 -7.2,0.46 -9.17,0.83 -2.53,0.47 -2.31,0.69 -4.57,2 -1.94,1.13 -4.57,1.68 -5.15,4.16 -0.1,0.41 1.13,3 1.11,3.83 a 13.93,13.93 0 0 1 -1.11,4.17"
         transform="translate(-165.35,122.83)"
         id="path290" />
      <path
         class="cls-7"
         d="m 289.79,-26.67 c 1,10.23 14.36,9.52 21.89,5.52 a 17.26,17.26 0 0 0 7.54,-8.65 c 0.87,-2.19 2.89,-12.8 -1.43,-11.87 1.21,9.98 -2.45,21.56 -14.79,21.67 -2.19,0 -6.53,-0.71 -8.28,-2.05 -1.75,-1.34 -2,-5 -5,-4.62"
         transform="translate(-165.35,122.83)"
         id="path292" />
      <path
         class="cls-6"
         d="m 330.79,-19.67 c 3.46,1.94 4.77,1 8,-0.24 2.91,-1.14 6.45,-0.77 9.12,-1.76 4.75,-1.77 5.12,-9 2.75,-13 -3,-5.05 -9.78,-6.09 -15.09,-5 -1.18,0.23 -5,0.9 -5.53,1.94 -0.75,1.57 0.43,0.63 1.35,1.11 1.77,0.91 4,-0.7 5.19,1.93 0.86,1.9 -0.91,3.74 -1.52,5.4 -1.29,3.51 -1.23,7.16 -5.24,8.67 l 1,1"
         transform="translate(-165.35,122.83)"
         id="path294" />
      <path
         class="cls-3"
         d="m 178.79,-19.67 c 6.39,-1.47 13.26,1.33 20.09,0.38 5,-0.69 11.66,-2 16.43,-4.55 2.38,-1.26 7.6,-4.35 6.93,-7.36 -0.42,-1.87 -3.28,-3.66 -4.66,-5.18 -0.51,-0.55 -2.23,-1.19 -2.41,-1.65 -0.12,-0.3 1.37,-1.12 1.18,-1.65 -0.56,-1.6 -1.85,-2.51 -2.32,-4.28 -0.17,-0.64 0.53,-5 0.26,-5.38 1.18,1.23 1.5,-0.76 2.75,-1.42 a 12,12 0 0 1 7.47,-1.36 c 3.53,0.35 5.93,4 9.28,3.45 -1.47,-5.93 -2.86,-11.25 -6.45,-16.31 -1.25,-1.75 -2.46,-3.59 -3.68,-5.33 -1,-1.5 -0.45,-1.6 -1.8,-2.46 -0.73,-0.47 -2.41,-0.39 -3.32,-0.8 -6.76,-3.06 -8.74,-12.51 -6.32,-18.91 1,-2.6 3.45,-6.4 6.8,-6 3.57,0.45 2.8,4 2.77,6.79 1.75,-1 9.9,-10.86 9.39,-11.61 -1.38,-2 -10,0 -10.65,1.88 0,0.05 -4.61,-6.64 -5,-7.86 -1,-2.76 -0.47,-5.39 -0.7,-8.32 -0.17,-2.13 0.33,-2.24 -1,-3.09 -0.92,-0.6 -4.15,0.1 -5.17,0.3 -4.2,0.82 -7.47,3.3 -10.86,5.7 3,0.6 4,-1.42 6.63,-2 3.37,-0.69 6,1 7.37,4 0.13,-0.74 0.46,-1.5 0.52,-2.25 -1.21,5.24 0.88,16 -8.52,14.25 2.6,3.33 2.56,11.44 2.25,15.44 -0.24,3.12 -1.18,8.22 -3.25,11.56 6.93,2.45 18.47,7.69 10.71,16.24 -6.3,7 -13.49,7 -21.71,3.76 -1.95,3.23 1.64,8 1.6,11.65 0,5.5 -4.26,12.3 -9.69,13.72 -4.64,1.21 -12.29,-0.92 -7.68,-6.22 2.2,-2.53 5.32,-3.95 6.77,-7.15 -10.6,11.77 -16.65,-10.2 -5,-13 -0.88,-1.46 0.31,-3.4 1.74,-4.38 2.26,-1.56 4,-1 6.26,0.38 -0.77,-6.56 4.5,-9.57 8.64,-13.11 3.65,-3.13 8.76,-8.28 6.36,-13.89 -4.23,7.55 -7.1,9.36 -15.68,11.56 -6.94,1.79 -10.91,9 -13.44,15.29 -5.51,13.7 -0.75,28 7.12,39.15"
         transform="translate(-165.35,122.83)"
         id="path296" />
      <path
         class="cls-5"
         d="m 372.79,-18.67 c 1.06,-0.17 2.88,-0.14 3.75,-0.78 2.13,-1.57 0.72,-0.08 0.83,-2.34 0.15,-3 -0.32,-5.28 -3.35,-5.8 -1.62,-0.29 -5.73,0.46 -6.17,1.55 -1.1,2.72 3,6.22 4.94,7.37"
         transform="translate(-165.35,122.83)"
         id="path298" />
      <path
         class="cls-6"
         d="m 315.79,-45.67 c 6.1,12.2 -1.36,28.7 -17,25 2.46,-3.42 5.78,-6.95 7.67,-10.69 1.89,-3.74 0.83,-4.46 -2.67,-7.31 a 64.12,64.12 0 0 0 4.64,-6.47 c 2.31,-3.26 4.31,-2.71 7.36,-0.53"
         transform="translate(-165.35,122.83)"
         id="path300" />
      <path
         class="cls-3"
         d="m 344.79,-21.67 c 0.68,0 6,-0.54 4,1.74 -0.7,0.81 -5.61,0.66 -4,-1.74"
         transform="translate(-165.35,122.83)"
         id="path302" />
      <path
         class="cls-5"
         d="m 293.79,-28.67 a 36.22,36.22 0 0 0 4,-3.33 c 1.58,-1.57 2.7,-4.64 4.51,-5.66 3.36,-1.89 5.74,2.36 4.67,5.46 -0.5,1.43 -6.63,11.07 -8.23,11.53 -5.15,1.46 -5,-5.32 -5,-8"
         transform="translate(-165.35,122.83)"
         id="path304" />
      <path
         class="cls-5"
         d="m 329.79,-20.67 c 5.25,-1.94 10.9,-18.8 0.49,-16 -6.8,1.82 -4.3,12.19 -0.49,16"
         transform="translate(-165.35,122.83)"
         id="path306" />
      <path
         class="cls-3"
         d="m 351.79,-32.67 c 1.86,-3 -2.14,-6.11 -4,-8 4.37,2.77 1.53,-3.11 -0.07,-4.68 a 29.59,29.59 0 0 0 -9.93,-5.94 c -8.16,-3.06 -15.67,-2.36 -22,3.62 -6.72,-6.6 10.47,-9.62 14,-9.67 9.46,-0.13 16.6,4.94 23.62,10.64 2.53,2.05 6.19,5.23 8.51,7.58 3,3 5.45,4.61 4.74,8.59 -0.71,3.98 -0.9,5.92 0.14,9.86 -3.14,-1.67 -12.42,-8.32 -15,-5 v -7"
         transform="translate(-165.35,122.83)"
         id="path308" />
      <path
         class="cls-7"
         d="m 276.79,-23.67 a 18.86,18.86 0 0 0 3,1 c -0.09,-1.49 -1.48,-1.69 -3,-2 v 1"
         transform="translate(-165.35,122.83)"
         id="path310" />
      <path
         class="cls-7"
         d="m 329.79,-36.67 c -3.46,0.08 -3.59,6.25 -3.52,8.75 0.1,3.39 1.38,4.35 -2.48,5.25 0.25,-9.18 1.15,-16.9 11.44,-19.1 3.8,-0.81 21.46,1.29 16.56,9.1 a 12.9,12.9 0 0 0 -11,-7.36 c -2.3,-0.19 -10.94,0.18 -11,3.36"
         transform="translate(-165.35,122.83)"
         id="path312" />
      <path
         class="cls-6"
         d="m 289.79,-26.67 c 1.91,-0.25 3,1.64 4,3 v -5 l -4,2"
         transform="translate(-165.35,122.83)"
         id="path314" />
      <path
         class="cls-7"
         d="m 424.79,-24.67 a 11.67,11.67 0 0 0 1,-2 c -3.77,-0.06 -10,-1.09 -12,3 4,0.19 6.93,-2.36 11,-1"
         transform="translate(-165.35,122.83)"
         id="path316" />
      <path
         class="cls-4"
         d="m 454.79,-32.67 c 2.82,1 2.92,5.58 5.51,7.47 2.59,1.89 4.46,1.53 7.49,1.53 -1.18,-1.81 1.77,-4.71 0.75,-7.71 -1.17,-3.42 -4.5,-5.43 -5.75,-9.29 -3.34,2.38 -7,3.85 -8,8"
         transform="translate(-165.35,122.83)"
         id="path318" />
      <path
         class="cls-3"
         d="m 468.79,-23.67 a 12.14,12.14 0 0 0 2,0 c -0.89,-1.33 -1.37,-3.5 -3,-2.43 -1.49,1 0,2.38 1,2.43"
         transform="translate(-165.35,122.83)"
         id="path320" />
      <path
         class="cls-6"
         d="m 373.79,-27.67 c -0.73,-5.23 -8,-1.86 -6.35,0.37 1,1.32 4.72,-0.1 6.35,-0.37"
         transform="translate(-165.35,122.83)"
         id="path322" />
      <path
         class="cls-3"
         d="m 468.79,-27.67 h 5 c -2.43,-3.59 -6.17,-14 -11,-13 1.63,5.06 6.25,7.46 6,13"
         transform="translate(-165.35,122.83)"
         id="path324" />
      <path
         class="cls-4"
         d="m 182.79,-41.67 c 0.41,-3.13 1.64,-6.92 0,-9.77 -1.22,-2.16 -5.63,-2.78 -5.55,-4.85 0.15,-3.81 5.46,-3.69 7.66,-2.81 2.2,0.88 6,3.15 6.76,5.32 0.15,0.42 -0.52,1 -0.39,1.36 0.24,0.65 1,3.19 1.2,4 0.32,1.26 0.67,3.36 0.89,4.89 0.78,5.48 -3.63,13.18 -8.86,15 -4.53,1.57 -13.38,-0.41 -8.5,-6 2.2,-2.53 5.32,-3.95 6.77,-7.15"
         transform="translate(-165.35,122.83)"
         id="path326" />
      <path
         class="cls-6"
         d="m 221.79,-32.67 c 4.91,3.06 13.34,7.9 16.55,1.05 3.48,-7.4 -3.36,-15.53 -9.4,-19.09 -3.24,-1.91 -8.62,-2.52 -11.9,0 -0.93,0.71 -2.86,1.87 -2,3.2 0.16,0.24 5,-1.83 5.71,-1.76 6.61,0.61 5.82,6.39 2,10.1 -1,0.93 -3.63,2.25 -3.82,3 -0.39,1.59 1.54,3.26 2.85,3.53"
         transform="translate(-165.35,122.83)"
         id="path328" />
      <path
         class="cls-7"
         d="m 421.79,-39.67 c 0.15,1.84 -1.62,2.51 -1.77,3.82 -0.08,0.75 5.59,5.07 6.28,5.5 2.18,1.35 4,2.31 5.49,-0.32 -1.71,-1.91 -4.21,-1.52 -6.17,-3.08 -1.96,-1.56 -2.78,-3.91 -3.83,-5.92"
         transform="translate(-165.35,122.83)"
         id="path330" />
      <path
         class="cls-7"
         d="m 454.79,-32.67 c 0.43,-0.95 0.67,-2 1,-3 -3.84,1.8 -7.62,4.35 -12,4 2.09,3.82 7.94,0 11,-1"
         transform="translate(-165.35,122.83)"
         id="path332" />
      <path
         class="cls-7"
         d="m 258.79,-30.67 a 14.36,14.36 0 0 0 2,-1 c -3.27,-1.57 -6.91,-3.22 -9.11,-6.26 -1.13,-1.57 -3.33,-4.81 -2.89,-6.74 -4.5,1.63 0,8.12 2,9.87 2,1.75 5.26,2.93 8,4.13"
         transform="translate(-165.35,122.83)"
         id="path334" />
      <path
         class="cls-5"
         d="m 421.79,-39.67 c 0,-3.68 0.54,-6.35 3.26,-9.17 4.62,-4.82 9.66,-3.83 15.84,-3.83 -2.14,6.09 -3.26,13.53 -6,19.18 -3.34,6.88 -10.93,-2 -13.09,-6.18"
         transform="translate(-165.35,122.83)"
         id="path336" />
      <path
         class="cls-6"
         d="m 443.79,-31.67 c 4.43,0.35 9.06,-2.23 12.73,-4.52 1.22,-0.76 5.84,-3.16 6.27,-4.48 0.6,-1.83 -2,-6.8 -2.79,-8.13 -3.95,-6.58 -13.83,-12.29 -21.62,-9.88 -1.41,0.44 -7.56,3.32 -7.59,5.11 0,2 8.39,0.9 10.1,0.9 -1.5,4.24 -3.42,8.58 -4.51,12.94 -0.8,3.24 -0.74,6.73 -3.59,9.06 l 11,-1"
         transform="translate(-165.35,122.83)"
         id="path338" />
      <path
         class="cls-6"
         d="m 250.79,-40.67 c 6.5,-0.92 4.9,-11.32 -2,-9 a 43.31,43.31 0 0 1 1,-9 c 4.75,7.43 9.6,16.11 16.26,22 1.94,1.71 3.69,1.8 1.07,4 -1.37,1.13 -4.69,1.42 -6.33,1.06 -3.42,-0.76 -10.3,-5.2 -10,-9"
         transform="translate(-165.35,122.83)"
         id="path340" />
      <path
         class="cls-7"
         d="m 215.79,-38.67 c 2.22,1.48 3.54,2.18 4,5 -1.29,-1.62 -4.9,-3.95 -4,-5"
         transform="translate(-165.35,122.83)"
         id="path342" />
      <path
         class="cls-5"
         d="m 218.79,-36.67 c 4.81,-1.49 9.6,-7.94 5.18,-11.28 -3.55,-2.69 -8.84,2.26 -9.68,-1.39 0.35,0.47 -0.52,2.72 -0.5,3.39 0.06,2.35 1,3.21 1.94,5 1.19,2.36 0.08,2.25 3.06,4.24"
         transform="translate(-165.35,122.83)"
         id="path344" />
      <path
         class="cls-6"
         d="m 174.79,-53.67 c -2.42,3.28 -4.76,7.31 -3.29,11.58 1.61,4.7 6.6,5.47 9.82,1.89 3.64,-4.06 3.41,-12.4 -2.53,-14.47 2.51,2.34 1.78,4.28 0.61,6.91 -0.61,1.35 -2.82,5.41 -4.77,5.09 -3.42,-0.57 -0.38,-8.62 0.16,-11"
         transform="translate(-165.35,122.83)"
         id="path346" />
      <path
         class="cls-4"
         d="m 315.79,-45.67 c -0.72,-3 3.18,-5 5.42,-6 4.8,-2.22 10.18,-1.57 15.11,0 a 29.59,29.59 0 0 1 11.4,6.4 c 0.79,0.77 2.94,2.73 2.69,4.06 -0.42,2.24 -1.3,0.73 -3,0.55 -3.14,-0.34 -6.32,-1.66 -9.49,-1.54 -2.33,0.08 -4.49,0.61 -6.87,0.61 -3.46,0 -7.29,0.48 -10.72,0 -3.2,-0.45 -2.93,-0.72 -4.57,-4"
         transform="translate(-165.35,122.83)"
         id="path348" />
      <path
         class="cls-5"
         d="m 248.79,-44.67 c -1.26,5.67 7.22,4.5 6,-1.83 -0.44,-2.3 -2.14,-4.86 -4.8,-3.47 -1.93,1 -1.19,2.93 -1.19,5.3"
         transform="translate(-165.35,122.83)"
         id="path350" />
      <path
         class="cls-5"
         d="m 174.79,-53.67 c -0.68,3 -3.76,15.83 2.7,9 3.57,-3.75 4.59,-12.14 -2.7,-9"
         transform="translate(-165.35,122.83)"
         id="path352" />
      <path
         class="cls-2"
         d="m 233.79,-46.67 c 0.73,-9.33 -6.32,-15.65 -10,-23.2 -1.95,-4 -1,-3.83 2.16,-3.8 3.85,0 7.73,-0.1 11.57,0.11 4.66,0.24 11,0.46 7.71,5.89 a 12.44,12.44 0 0 1 -5.95,4.85 c -2.3,0.91 -2.56,-0.75 -3.09,2 -0.39,2 2.33,7.23 2.76,9.46 0.34,1.71 1.33,6.28 -0.94,7.31 -1.83,0.83 -3,-1.39 -4.25,-2.62"
         transform="translate(-165.35,122.83)"
         id="path354" />
      <path
         class="cls-6"
         d="m 421.79,-43.67 3,-5 c -1.83,1.37 -5.31,2.56 -3,5"
         transform="translate(-165.35,122.83)"
         id="path356" />
      <path
         class="cls-7"
         d="m 233.79,-46.67 c 0.55,-2.2 -4.08,-3.29 -6,-5 l 6,5"
         transform="translate(-165.35,122.83)"
         id="path358" />
      <path
         class="cls-6"
         d="m 191.79,-53.67 c 6.3,2.5 10.6,3.74 16.82,0.05 4.07,-2.41 7.3,-7.09 4.73,-11.94 -4.92,-9.27 -20,-5 -24.55,1.89 3.1,-3.2 10.5,-7.39 9.68,0.34 -0.64,6 -5.43,8.2 -10.68,5.66 l 4,4"
         transform="translate(-165.35,122.83)"
         id="path360" />
      <path
         class="cls-7"
         d="m 248.79,-53.67 1,-5 c -1.83,0.89 -1.58,3.29 -1,5"
         transform="translate(-165.35,122.83)"
         id="path362" />
      <path
         class="cls-5"
         d="m 187.79,-57.67 c -2.08,-4.09 5.12,-12.38 9.52,-10.11 3,1.53 0.66,7.43 -0.72,9.14 -2.48,3.07 -5.52,2.48 -8.8,1"
         transform="translate(-165.35,122.83)"
         id="path364" />
      <path
         class="cls-7"
         d="m 211.79,-55.67 c 5.22,-5.36 5.65,-10.66 -1.37,-14.67 -1.63,-0.92 -4.14,-2.65 -6.12,-2.8 -2.49,-0.18 -2.38,0.33 -4.51,2.47 9.71,-0.19 18,5 12,15"
         transform="translate(-165.35,122.83)"
         id="path366" />
      <path
         class="cls-7"
         d="m 187.79,-57.67 c -1.58,-3.18 1.31,-6.46 3,-9 -4,-1 -7.47,8.16 -3,9"
         transform="translate(-165.35,122.83)"
         id="path368" />
      <path
         class="cls-2"
         d="m 199.79,-70.67 c 3.47,-3.47 4,-5.08 5,-9.75 0.4,-1.85 1.18,-3.12 1.35,-4.5 0.28,-2.31 -0.48,-5.93 -0.62,-8.36 -0.27,-4.77 -1.4,-6.33 -3.83,-10.07 -2.06,-3.16 -4.49,-8.33 -0.9,-11.32 -3.23,-0.46 -5.49,1.44 -7.43,3.87 -3.45,4.31 0,7.62 2.58,11.62 2.58,4 5.45,9.18 5.06,14.38 -0.5,7.42 -2.6,10 -8.6,14.52 -1.81,1.34 -6,3.56 -1.55,3.56 2.55,0 6.51,-2.89 8.9,-4"
         transform="translate(-165.35,122.83)"
         id="path370" />
      <path
         class="cls-4"
         d="m 222.79,-72.67 c 0,-1.54 0.68,-1.86 2,-1 0.52,-4.27 -2.26,-8.22 -3,-12.36 -0.64,-3.46 2.09,-11.82 -2.73,-12.43 -11.63,-1.47 -9.49,25 3.77,25.79"
         transform="translate(-165.35,122.83)"
         id="path372" />
      <path
         class="cls-3"
         d="m 224.79,-76.67 c 2.07,1.26 5.38,0.84 6,3 -3,0 -7.16,1.4 -6,-3"
         transform="translate(-165.35,122.83)"
         id="path374" />
      <path
         class="cls-4"
         d="m 203.79,-100.67 c 8.51,1.36 11.78,-12.88 4.27,-15.67 -3.6,-1.34 -8.16,0.88 -9,4.63 -0.94,4 2.49,8.14 4.77,11"
         transform="translate(-165.35,122.83)"
         id="path376" />
      <path
         class="cls-7"
         d="m 216.79,-106.67 c 0.09,0.16 3.49,6 3.74,5.27 0.57,-1.71 2.71,-1.84 4.26,-2.27 a 9.75,9.75 0 0 1 -8,-3"
         transform="translate(-165.35,122.83)"
         id="path378" />
      <path
         class="cls-6"
         d="m 216.79,-106.67 c 2.06,2.27 10.71,5.19 13.51,2.42 2.8,-2.77 -3.17,-9.19 -5.24,-11 -3,-2.56 -6.71,-3.92 -10.27,-5.42 v 4 c 2.43,-0.58 6.78,0.68 5.45,4.33 -0.83,2.29 -3.31,1.83 -5.45,1.67 l 2,4"
         transform="translate(-165.35,122.83)"
         id="path380" />
      <path
         class="cls-7"
         d="m 211.79,-109.67 c 0.22,-1.64 0.15,-3.67 0.52,-5.25 a 13.3,13.3 0 0 0 -0.52,5.25"
         transform="translate(-165.35,122.83)"
         id="path382" />
      <path
         class="cls-5"
         d="m 214.79,-110.67 c 0.92,0.06 3.51,0.5 4.32,-0.09 2.14,-1.56 1,-5.23 -1.34,-6 -4.26,-1.47 -3,3.47 -3,6.11"
         transform="translate(-165.35,122.83)"
         id="path384" />
      <path
         class="cls-8"
         d="m 486.22,-13.48 c -4,-9.92 -28.23,-15.8 -23.64,-1.34 2,6.41 7.51,10 14.11,10.85 6.02,0.79 12.25,-2.7 9.53,-9.51 z m -6.92,6.84 c -6,0.1 -21.15,-7.7 -13.16,-14.34 3.94,-3.27 9.45,-0.67 12.94,2.2 4,3.33 5.09,7.08 5.43,12.06 z"
         transform="translate(-165.35,122.83)"
         id="path386" />
      <path
         class="cls-8"
         d="m 214.61,-66.5 c -8.7,-12.27 -37.24,-0.72 -27.06,11.44 a 17.83,17.83 0 0 0 19.59,4.94 c 6.21,-2.5 12.09,-9.88 7.47,-16.38 z m -12.76,15.8 c -4.34,-0.54 -9.29,-1 -12.31,-4.74 C 185,-61 191,-66.42 196,-68.72 c 5.57,-2.55 15.41,-1.65 17.76,5.17 2.13,6.19 -5.93,13.55 -11.91,12.85 z"
         transform="translate(-165.35,122.83)"
         id="path388" />
      <path
         class="cls-8"
         d="m 231.39,-83.67 c -3.63,1.15 -6.34,-3.75 -2.71,-5.43 3.28,-1.52 6.11,4.35 2.71,5.43"
         transform="translate(-165.35,122.83)"
         id="path390" />
      <path
         class="cls-8"
         d="m 189.6,-87.31 c -3.5,0.67 -5.65,-4.18 -1.89,-5.52 3.76,-1.34 6.25,4.68 1.89,5.52"
         transform="translate(-165.35,122.83)"
         id="path392" />
      <path
         class="cls-8"
         d="m 519.48,-0.78 c -4.05,-9.68 -10.1,-18.67 -20.92,-22.38 -6.06,-2.08 -12.7,-1.61 -18.68,-3.69 -6.8,-2.37 -8,-8.69 -12.07,-13.75 C 459.83,-50.57 452,-65 436,-59.76 c -5.46,1.79 -10.43,6.84 -14.15,11 a 105,105 0 0 1 -11.08,10.39 c -9.23,7.48 -20.9,17.58 -34.5,9.26 -8.49,-5.19 -14.93,-12.67 -23.17,-18.86 -6.69,-5 -11.5,-9.26 -20.24,-10.48 -7.78,-1.09 -14.8,0.3 -20.63,5.74 -5.83,5.44 -9.43,13.87 -16.47,19 -14.57,10.67 -28,-2.12 -36.48,-13.88 a 85.16,85.16 0 0 1 -10.12,-17.28 c -1.16,-2.76 -2.23,-5.55 -3.23,-8.37 -0.55,-1.54 -1.59,-2.66 -0.62,-4 2.15,-3.07 2,0.37 2.71,1.35 0.71,0.98 2.32,-5.5 2.37,-6 a 28.92,28.92 0 0 0 -1.16,-10.78 c -0.48,-1.7 -5.81,-14 -9.58,-10.08 a 4.22,4.22 0 0 0 1.07,1.47 c -0.2,0.78 -5.86,-1.58 -6.24,-1.83 -2.25,-1.54 -3.07,-5.58 -4,-7.32 a 25.45,25.45 0 0 0 -12.23,-10.79 c -9.84,-3.76 -19.64,-0.65 -25.81,7.66 -5.94,8 -18.2,3.9 -24.8,12.86 -4.42,6 -1.55,12.12 1.65,17.29 1.77,2.86 6.63,5.74 7.45,8.88 0.82,3.14 -1.71,5.71 -3.1,8.6 -9.52,19.87 -7.14,46.42 15.32,55.59 18.22,7.44 42.51,1.11 50.58,-17.7 7.02,11.91 14.76,21.16 27.62,27.66 10.84,5.48 27.95,4.58 39.37,1.73 4.17,-1 7.74,-3.15 11.41,-5.19 0.23,-0.13 0,-1 0.24,-1.12 0.72,-0.48 1.79,0.19 2.56,-0.33 2.13,-1.47 4,-2.74 6.2,-4.13 8.13,-5.09 15.2,-12.35 25.65,-7 a 55.39,55.39 0 0 1 11.51,8.26 c 2.67,2.43 6.09,4.2 9.41,6.55 8.52,6 18.62,8.7 29.23,5.59 11.26,-3.31 19.88,-12.79 28.76,-19.92 2.46,-2 5.41,-4.35 8.53,-5.16 2.2,-0.57 1.49,-1 3.48,0.06 2.15,1.1 4.2,5.49 5.49,7.37 2,2.85 4.27,7.56 7,9.65 3.69,2.81 9.1,2.42 13.42,3.42 10.58,2.45 24.83,11.27 23,24.24 -1.42,10.26 -15.73,13.55 -23.22,17.68 -6.82,3.76 -13.69,7.52 -20.52,11.33 -4.21,2.35 -6.86,3.2 -12,2.25 -5.77,-1.06 -10.77,-5 -15.33,0.76 A 10.1,10.1 0 0 1 419.66,57 c -0.48,1.1 0.19,2.48 -0.29,3.44 -1.31,2.58 -4.67,2.21 -6.54,4.21 -1.7,1.82 -1.55,4.17 -3.43,6 -2.56,2.46 -5.3,2.21 -5.35,6.91 0,3.59 1,2.72 -0.8,6 -1.49,2.66 -2.58,3.95 -1.06,7 1.74,3.45 7.88,6.66 11.32,8 a 20.66,20.66 0 0 0 7.31,1.12 11.15,11.15 0 0 0 2.36,-0.31 c 2.08,-0.52 4.12,-3.55 5.76,-3.83 3.4,-0.59 5.45,3.36 9.29,1.89 4.27,-1.64 1.49,-4.75 3.35,-7.11 1.86,-2.36 6.6,-0.06 8.69,-3.34 0.68,-1.06 0.06,-2.18 0.48,-3.15 1.44,-3.3 0.26,-0.94 3.42,-2.24 6.8,-2.78 1.71,-7.55 -0.66,-12 -5.4,-10 18.2,-15 24.83,-16.85 12.54,-3.48 25.57,-4.67 34.13,-15.74 -3.33,0.42 -8.2,5.5 -11.52,7.09 -2.58,1.24 -6.4,3.46 -9.22,3.49 -2.61,0 -0.9,1.05 -2.35,-1.06 -3.62,-5.26 4.54,-13.76 8.49,-15.66 3.95,-1.9 16.13,-2.11 15.19,5.47 8.39,-7.61 10.71,-26.84 6.42,-37.11 z m -30.92,37.56 c -0.78,2.47 -2.08,3.54 -2.44,6.31 -0.16,1.21 0.49,4.29 -0.11,5.17 -1.24,1.82 -8.63,2.57 -10.92,3.22 -7.52,2.13 -18.78,4.64 -22.57,11.24 -3.45,6 1.21,7.3 3.42,11.58 4.59,8.9 -6.73,2.23 -8.2,5 -1,2 3.54,5.48 0.27,8.13 -2.42,2 -4.65,-1.41 -6,-1.72 -5.71,-1.31 1.05,9.35 -4,10.08 -4,0.59 -6.84,-6.52 -10.6,-2.47 -1.34,1.44 1.65,1.07 -0.41,3 -2.06,1.93 -5.76,1 -8.1,0.6 -4.43,-0.74 -6.42,-1.4 -9.73,-3.76 -1.82,-1.31 -4.49,-2.58 -4.44,-5.32 0.08,-5.29 4.65,-1.68 6.7,-3.4 2.81,-2.36 -6.07,-4.18 -3.48,-9.3 2.11,-4.16 4.72,-0.47 7.28,-2.06 3.48,-2.16 -3.7,-3.82 0.62,-7.26 1.83,-1.46 5.23,-0.26 7,-1.46 3.39,-2.35 0.17,-2.34 0.16,-5 0,-4.31 3.76,-4.21 6.93,-3.83 4,0.49 7.93,1.88 12,2.3 4.72,0.48 5.7,-0.82 9.57,-2.67 5,-2.41 9.87,-4.26 14.42,-7.91 a 22.72,22.72 0 0 1 7,-4.12 c 3.32,-1.23 6.39,-3.4 9.58,-4.93 0.18,-0.07 6.6,-3.15 6.05,-1.42 z m -59.8,-88.12 c 6.92,-5.71 13.61,-9.7 22.46,-5.15 2.4,1.23 5.4,4.21 7.18,6.43 3.45,4.28 5.58,7.55 1.1,11.49 A 32,32 0 0 1 440.1,-31 c -3.73,0.18 -9.87,0.7 -13.32,-1.26 -2.85,-1.62 -3.35,-4 -3.95,-6.91 -0.2,-1 -1.87,-4.55 -1.82,-4.83 0.47,-2.79 5.9,-5.82 7.75,-7.34 z m -57.71,21.56 c 1.26,-0.09 5,2.45 6,3.16 2.57,1.79 3.65,3.16 7,3.46 2.69,0.24 10.33,-1.82 12.22,0.46 2.33,2.82 -3.17,7.06 -5.32,8.09 -5.64,2.71 -13.06,-0.05 -18,-3.4 -2.11,-1.43 -3.6,-2.41 -4.54,-4.35 -1.31,-2.79 -1.8,-7.08 2.64,-7.42 z m -78.61,2.16 c 5.62,-1.42 7.91,-6.93 11.34,-10.72 3.81,-4.21 8.44,-13.51 13.18,-4.82 5,9.17 -0.61,20.52 -10.34,23.28 -7.07,2 -12.22,-2.22 -16.6,-7.14 a 14,14 0 0 1 2.42,-0.6 z m -60.09,-71.95 0.22,0.89 c 0.41,0.28 5.11,-1.35 6.11,-1.29 a 10.62,10.62 0 0 1 8.06,4.6 c 1.93,2.84 2.47,6.66 2.21,10 -0.13,1.69 -0.18,3.57 -1.23,5 -0.74,1 -2.15,0.23 -2.44,0.58 -0.87,1.06 -0.6,2.39 -2.27,3.47 -1.83,1.17 -5,1.43 -7.07,1.41 A 12.3,12.3 0 0 1 226,-80 c -2.67,-3.89 -1.88,-10.53 0,-14.71 0.38,-0.92 6.55,-7.09 6.35,-4.86 z m -62.52,9 c -1,-5 0.53,-8.43 4.17,-11.72 3.07,-2.79 13,-8.4 16.63,-3.31 0.4,0.57 -5.36,1 -5.7,1.08 a 20.33,20.33 0 0 0 -9.36,3.26 c -3.78,2.71 -5.11,6.31 -5.74,10.71 z m 6.61,11.89 c -4,-1 -6.12,-8 -5.34,-11.25 1.09,-4.57 4.56,-9.8 8.78,-11.84 6.79,-3.29 13.81,0.25 16.23,7.22 1.77,5.1 -0.9,17.48 -8.08,17.48 0.83,0 3.49,1.64 4.48,1.9 -2.61,0.65 -5.8,2 -8.48,1.76 -3.84,-0.33 -4.24,-4.41 -7.59,-5.25 z m 20.16,-1.81 c -0.19,0.84 -0.6,1.09 -1.22,0.76 -0.17,-0.42 1.06,-2.65 1.38,-1.87 z m 42.4,45.8 c -1,4.16 -1.6,7.24 -6.71,6.9 -7.08,-0.48 -14.47,-7 -16,-13.72 -4.54,-19.34 25.71,-6.13 22.71,6.82 z M 346.11,-21 c -5.36,0 -9.14,4.6 -14.37,2.31 -6.08,-2.67 -8.05,-11.61 -3.39,-16.68 4.66,-5.07 14.87,-5.64 20,-0.93 4.28,3.84 5.92,15.3 -2.24,15.3 z m 72.68,13.73 c -4.09,3.33 -7.18,6.72 -12,1.87 -4,-4 -2,-9.17 0.88,-12.29 3.28,-3.57 11.6,-9.64 17,-6.24 5.04,3.19 -2.8,14.17 -5.88,16.66 z m 96.58,37.53 c -1.58,3 -2,2 -4.17,1.23 -4.8,-1.64 -7,-4.06 -12.44,-3.6 -4.08,0.35 -4.91,1.53 -4.06,-2.52 1.37,-6.56 5,-4.87 10.11,-5.91 6.94,-1.42 16.6,-11.77 8.66,-18 -3.42,-2.68 -9.09,-2.08 -12.94,-0.83 -2.28,0.75 -9.52,4.8 -9.52,7.7 0,-1.32 -3.77,-4.58 -4.91,-5.45 -3.24,-2.49 -8,-3.71 -11.89,-4.82 -9.93,-2.85 -16.62,-4 -22.57,-12.73 -2.79,-4.1 -5.83,-11.5 -12.41,-9.79 -5,1.29 -9.65,6.51 -13.38,9.82 1,-3.49 2.9,-8.53 -0.73,-11.18 -3.63,-2.65 -8.44,0.41 -11.85,1.61 -6.15,2.21 -10.93,5.56 -11.27,12.9 -0.22,5.5 1.25,5.69 4.51,8.86 1.19,1.16 1.78,0.64 1.32,2.18 -0.35,1.16 -7.48,2.41 -8.19,2.56 -9.11,2 -19.73,-2.07 -27.4,-7 -4.69,-3 -8.78,-7.33 -12.64,-10.61 -2.59,-2.19 -8.1,-3.26 -8.51,-7.23 -0.11,-1 1.67,-4.37 1.7,-5.82 a 13,13 0 0 0 -2.1,-7.69 c -6.25,-9.07 -23.25,-7 -26.78,3.48 -0.88,2.6 -2,8.56 -0.36,11.26 1.08,1.76 6.93,3 6.86,5.22 -0.05,1.67 -10.73,8.38 -12.05,9.32 a 43.09,43.09 0 0 1 -18.1,7.56 c -2,0.34 -17.61,2.83 -18.63,0.37 -0.09,-0.22 6.24,-12.2 3.54,-12.2 -3.17,0.05 -2.51,11.32 -9.55,10.87 -4.67,-0.3 -14,-4 -16.59,-8.06 -4,-6.3 7,-12.94 12.18,-14.27 3.22,-0.83 7,-0.54 9.45,2.07 1.53,1.63 1.85,7.26 3.85,8 1.23,0.47 -1.17,-7.2 -1.8,-8 a 11.79,11.79 0 0 0 -8.1,-4.18 17.24,17.24 0 0 0 -10.94,2.42 c -3.82,2.28 -4.43,5.47 -7.21,8.39 -2.64,2.77 -3.11,0.81 -5.84,-2.31 -3,-3.36 -6.56,-7.33 -8.53,-11.34 -2.85,-5.81 -0.09,-13.3 -0.74,-19.56 -0.72,-6.82 -2.55,-15.47 -7.06,-20.9 -2.6,-3.13 -3,-2.77 -2.43,0.25 0.24,1.34 2,3.79 2.51,5.16 0.68,1.75 6.25,19.51 3.63,19.51 -1.75,0 -3.42,-4.35 -4.09,-4.88 a 30.62,30.62 0 0 0 -8.44,-4.64 c -3.58,-1.1 -8.74,-1.34 -11.39,1.76 -1.63,1.91 -2,4.81 -1.94,7.23 0.05,2.77 0.77,2.66 1.65,3.93 1.16,1.67 1.56,4.21 3.33,6.15 a 22.08,22.08 0 0 0 8,5.71 c 3.51,1.39 7.13,1.18 10.83,1.24 -8.3,21 -44.07,22.67 -58.16,6 -5.56,-6.57 -10.21,-21.38 -5.32,-29.32 1.93,-3.13 7.13,-4.69 9.48,-0.9 1.26,2 0.95,5.32 -0.18,7.32 -0.44,0.78 -5.94,4.94 -6.16,4.59 3.38,5.46 9.54,-8.28 9.32,-10.83 -0.65,-7.57 -7.86,-6.46 -12.8,-3.38 0.26,-5.15 0.7,-8.11 3,-12.12 1.59,-2.74 2.9,-5.14 5.9,-6.26 2.67,-1 5.92,-0.56 8.71,-1.64 7.8,-3 10.4,-11.11 9.2,-18.89 a 26,26 0 0 0 -4.71,-11.62 c -0.8,-1.07 -3.77,-3.45 -3.67,-4.6 0.22,-2.57 9.28,-8.41 11.15,-9.52 5.78,-3.44 12.79,-2.62 18.57,1 3.61,2.23 13.77,10.59 7.26,13.54 -3.3,1.49 -8.23,-0.41 -10.53,-2.85 a 15,15 0 0 1 -3.29,-6.58 c -0.16,-0.65 -0.63,-6 -1.16,-5.69 -1.49,0.9 -0.9,6.55 -0.69,7.94 a 10.53,10.53 0 0 0 3.74,7 c 3.13,2.89 6.71,3.34 10.79,3.34 -4.2,6.2 -8.89,18.54 -1.55,23.68 a 17.28,17.28 0 0 0 10.67,3.21 c 1.56,-0.09 4.26,-1.42 5.6,-1.19 2.69,0.48 2.94,3.95 3.76,6.08 1.31,3.42 3.47,6.5 3.14,10.19 -0.59,6.54 -3.32,12 -1,18.85 1.38,3.95 3.7,5.6 7.17,7.2 2.32,1.07 4.93,2.73 7.58,2.87 0.47,0 5.95,-1 5.16,-1.76 -1.1,-1.09 -5.28,-0.3 -6.83,-0.58 a 17.81,17.81 0 0 1 -7,-2.8 13.15,13.15 0 0 1 -4.48,-6.6 c -1.43,-5.49 -0.17,-12 0.24,-17.65 2.08,3.37 4.1,6.7 6.47,9.88 2.37,3.18 4.65,8 7,10.58 2.92,3.09 8.46,6.86 12.19,9.33 4.3,2.85 11.17,1.24 14.41,4.32 0.76,0.73 1,2.52 1.82,3.46 a 11.81,11.81 0 0 0 5.46,3 18.35,18.35 0 0 0 12.52,-1.4 c 7.31,-3.37 12,-11 10.43,-19.16 -1.55,-7.83 -10.62,-12.93 1,-16.8 7.14,-2.37 17,-2.15 23.18,2.51 4.45,3.33 8.16,7.35 12.62,10.21 a 20.24,20.24 0 0 1 5,4.24 c 1.67,2 4.23,6.33 7.28,6.33 -0.11,0 -1.45,1.06 -1.21,1 -9.39,4 3.88,15.64 7.92,17.41 6.31,2.76 14.53,4.2 19.74,-1.53 3.33,-3.67 1.94,-8.1 5.85,-11.5 1.54,-1.34 3.31,-2.43 4.79,-3.84 4.49,-4.28 9.44,-8.17 13.93,-12.67 -0.08,3.8 -0.21,7.12 1.94,10 3.27,4.37 8.32,5.72 13.52,5.52 11.85,-0.47 20.57,-5.47 29.19,-13.07 3.42,5.35 7.15,12.87 13.23,15.4 7.73,3.22 16.87,0.94 24.28,5.27 17.21,9.78 23.15,32.84 13.95,50.24 z M 496.54,7.18 c 3.28,-3.83 10.71,-7.63 15.59,-4.73 4.88,2.9 2.37,9.1 -1.14,12.12 a 15.14,15.14 0 0 1 -8.13,3.29 c -0.54,0.08 -6.21,1.37 -6.27,1.34 -0.69,-0.34 -1.43,-3.87 -1.63,-4.72 -0.8,-3.21 -0.96,-4.32 1.58,-7.3 z"
         transform="translate(-165.35,122.83)"
         id="path394" />
    </g>
  </g>
</svg>
