<svg xmlns="http://www.w3.org/2000/svg" xml:space="preserve" viewBox="0 0 500 500"><path fill="#fff" d="M0 0h500v500H0z" paint-order="stroke fill markers"/><path d="M222.9 94.98c-41.72 1.723-87.331 16.67-110.41 53.62-23.001 37.87 20.138 74.945 36.326 70.419 41.826 6.846 82.427-14.459 112.701-41.633 30.249-22.124-31.758 66.165-15.519 41.7-27.006 34.816-66.326 64.284-73.803 110.54-5.564 30.283 17.718 57.636 38.283 77.316 85.638 69.175 306.107-13.75 278.35-116.34-8.766-29.01-41.07-42.018-67.415-50.752-30.796-9.738-64.151-7.714-95.567-2.945-17.962 22.019-39.908 40.644-54.893 65.119 32.485-12.065 69.768-14.247 102.978-3.582 22.087 7.93 29.145 37.729 4.284 47.239-35.466 13.11-75.744 22.728-113.12 11.314-28.078-11.66-16.446-48.622-2.647-67.2 21.233-31.064 53.5-54.366 70.477-88.205 17.13-36.064-12.962-71.84-43.53-87.964-19.213-13.4-43.546-17.367-66.494-18.646m-24.724 22.215c13.306 0 24.094 10.787 24.094 24.094s-10.787 24.095-24.094 24.095-24.095-10.788-24.095-24.095 10.788-24.094 24.095-24.094m-19.138 160.86c-78.171 38.852-119.088 45.539-170.265 19.14 26.8 48.81 117.444 72.72 148.99 45.477 2.837-22.589 9.337-45.23 21.275-64.617"/></svg>