<?xml version="1.0" encoding="UTF-8" standalone="no"?>
<!-- Created with Inkscape (http://www.inkscape.org/) -->

<svg
   xmlns:dc="http://purl.org/dc/elements/1.1/"
   xmlns:cc="http://creativecommons.org/ns#"
   xmlns:rdf="http://www.w3.org/1999/02/22-rdf-syntax-ns#"
   xmlns:svg="http://www.w3.org/2000/svg"
   xmlns="http://www.w3.org/2000/svg"
   xmlns:sodipodi="http://sodipodi.sourceforge.net/DTD/sodipodi-0.dtd"
   xmlns:inkscape="http://www.inkscape.org/namespaces/inkscape"
   width="1052.3622"
   height="744.09448"
   id="svg6463"
   version="1.1"
   inkscape:version="0.48.3.1 r9886"
   sodipodi:docname="New document 2">
  <defs
     id="defs3" />
  <sodipodi:namedview
     inkscape:document-units="mm"
     id="base"
     pagecolor="#ffffff"
     bordercolor="#666666"
     borderopacity="1.0"
     inkscape:pageopacity="0.0"
     inkscape:pageshadow="2"
     inkscape:zoom="0.35"
     inkscape:cx="350"
     inkscape:cy="520"
     inkscape:current-layer="layer1"
     showgrid="false"
     units="mm"
     inkscape:window-width="1366"
     inkscape:window-height="746"
     inkscape:window-x="246"
     inkscape:window-y="1072"
     inkscape:window-maximized="1" />
  <metadata
     id="metadata4">
    <rdf:RDF>
      <cc:Work
         rdf:about="">
        <dc:format>image/svg+xml</dc:format>
        <dc:type
           rdf:resource="http://purl.org/dc/dcmitype/StillImage" />
        <dc:title></dc:title>
      </cc:Work>
    </rdf:RDF>
  </metadata>
  <g
     inkscape:label="Layer 1"
     inkscape:groupmode="layer"
     id="layer1"
     transform="translate(0,-308.2677)">
    <rect
       style="fill:#ffffff;fill-opacity:1;stroke:#000000;stroke-width:0.4894667"
       id="rect3466"
       width="988.19299"
       height="687.47803"
       x="44.037281"
       y="340.56573"
       inkscape:export-xdpi="49.887215"
       inkscape:export-ydpi="49.887215"
       inkscape:export-filename="C:\Users\iie\Desktop\Mortal_fight_v2.png" />
    <path
       style="fill:#916f6f;stroke:#000000;stroke-width:1.31807458"
       d="m 639.5305,912.38315 c 3.61856,-5.86553 6.72986,-9.42712 8.56747,-9.80748 1.58703,-0.32843 15.57539,-1.596 31.0853,-2.81667 l 28.19978,-2.2195 85.38124,-51.23764 c 74.79184,-44.88289 85.47303,-51.68617 86.12125,-54.85404 0.40697,-1.98901 6.72007,-39.1756 14.02905,-82.63685 7.30885,-43.46125 13.65554,-79.6424 14.10356,-80.40254 0.44801,-0.76015 21.22835,-27.37102 46.17853,-59.13525 24.95013,-31.76424 45.1487,-57.96834 44.8857,-58.23132 -0.63425,-0.63432 -116.02442,96.3157 -117.21603,98.4842 -0.50896,0.92587 -13.49617,35.49201 -28.86083,76.81364 l -27.93563,75.13023 -64.57642,34.32681 -64.5764,34.32682 -31.69674,-3.9291 -31.69671,-3.92908 -11.04829,-10.45811 -11.04828,-10.45813 -39.19418,-9.87169 c -21.55678,-5.42944 -44.21208,-10.56091 -50.34507,-11.4033 l -11.15091,-1.53158 29.57409,-22.37611 29.57407,-22.37608 18.95587,-43.73246 18.95585,-43.73245 -27.93569,-68.96292 c -15.36465,-37.92959 -28.62642,-69.64184 -29.4706,-70.47166 -0.84419,-0.82981 -29.30805,-9.97278 -63.25304,-20.31768 l -61.71817,-18.80892 -54.27237,6.23145 c -29.84981,3.42732 -55.92657,6.76441 -57.94836,7.41577 -2.02178,0.65136 -25.03641,14.84918 -51.14362,31.55071 -26.10718,16.70152 -48.31211,30.36641 -49.34428,30.36641 -1.03217,0 -16.21382,5.36549 -33.73699,11.92334 -17.52322,6.55782 -40.18233,14.27524 -50.3536,17.1498 -10.17128,2.87456 -18.61397,5.36808 -18.76153,5.54115 -0.14755,0.17307 -2.14348,4.05533 -4.43537,8.62724 -2.29188,4.57191 -7.107246,12.43307 -10.700804,17.46926 -3.593541,5.03617 -6.533741,9.6273 -6.533741,10.20248 0,0.57521 2.297143,3.28891 5.104751,6.03047 l 5.10476,4.98466 -6.196123,5.79574 c -3.407851,3.18766 -8.225809,6.67648 -10.706555,7.75297 -2.669109,1.1582 -3.537052,1.97827 -2.126053,2.00881 1.311444,0.0283 2.017848,0.64471 1.569821,1.36965 -2.472715,4.00094 5.369053,-0.555 12.79474,-7.43352 3.703975,-3.43104 7.466587,-5.74722 9.336364,-5.74722 1.72256,0 12.2761,-2.04076 23.45227,-4.53503 11.17618,-2.49428 38.09637,-7.62534 59.82266,-11.40238 l 39.5023,-6.86733 12.03966,-10.29816 c 6.62182,-5.66398 12.86767,-11.49913 13.87971,-12.96699 1.11984,-1.62427 14.22144,-7.87519 33.47381,-15.97068 l 31.6338,-13.30184 46.38701,-3.12479 46.38701,-3.12478 22.8119,13.29991 c 12.54653,7.31496 23.60725,14.03392 24.5794,14.93103 1.47755,1.36351 1.44105,7.2982 -0.22255,36.17623 -1.09451,18.99985 -2.18647,34.71951 -2.42653,34.93259 -0.24008,0.2131 -17.34082,9.99234 -38.00163,21.73166 l -37.56511,21.34422 -50.74588,5.84814 c -63.69604,7.34056 -58.75371,6.44529 -61.53053,11.14603 -1.61251,2.72978 -3.33324,3.90278 -5.72521,3.90278 -3.0752,0 -4.77317,2.46288 -16.85079,24.44163 -13.12695,23.88838 -13.43098,24.63468 -13.43098,32.96976 0,4.69045 -0.61959,9.55803 -1.37685,10.81685 -0.75725,1.25881 -4.50865,14.72697 -8.33641,29.92926 l -6.95957,27.64053 15.02051,31.01377 c 8.26128,17.05759 15.43754,31.4433 15.94722,31.96831 0.50968,0.52499 24.63768,5.26379 53.6178,10.53074 l 52.69112,9.57624 123.89898,0.69261 c 68.14446,0.38094 132.20288,0.82699 142.35205,0.99115 l 18.45304,0.29847 z"
       id="path3206"
       inkscape:connector-curvature="0"
       sodipodi:nodetypes="ccscscsssccscccccccsscccccssscsssssscsssscsscssssscssscccssscscssssssscssscsscc" />
    <path
       style="fill:#de8787;stroke:none"
       d="m 130.60192,615.78449 -29.59162,8.85419 -6.873635,3.26206 -9.203689,9.2037 -9.436702,3.96107 9.320187,-2.44654 -6.640627,4.89309 8.388179,-3.96106 c 0,0 8.970677,-9.55321 9.436685,-9.90272 0.466016,-0.34951 38.329292,-12.69877 38.329292,-12.69877 z"
       id="path3413"
       inkscape:connector-curvature="0"
       inkscape:export-filename="C:\Users\iie\Desktop\Mortal_fight_v2.png"
       inkscape:export-xdpi="49.887215"
       inkscape:export-ydpi="49.887215" />
    <path
       style="fill:#225500;fill-opacity:1;fill-rule:evenodd;stroke:none"
       d="m 275.72738,702.12935 -46.60096,67.10539 4.6601,72.69753 18.64037,33.55268 101.59013,37.28076 164.96741,0 L 707.2523,896.92141 877.81187,794.39927 905.77248,628.49983 998.04237,511.06539 881.53996,608.92742 824.68675,761.7786 695.13607,830.74802 383.84163,791.60323 z"
       id="path3360"
       inkscape:connector-curvature="0"
       sodipodi:nodetypes="ccccccccccccccc"
       inkscape:export-xdpi="49.887215"
       inkscape:export-ydpi="49.887215"
       inkscape:export-filename="C:\Users\iie\Desktop\Mortal_fight_v2.png" />
    <path
       style="fill:#55d400;fill-opacity:1;fill-rule:evenodd;stroke:none"
       d="m 210.28926,545.52211 102.15078,-57.99528 114.67248,-13.83978 119.94475,38.88319 51.40491,135.76165 -137.96963,137.23966 -84.78494,103.30891 -61.94949,-13.83976 -74.47122,-28.99763 -6.33679,-84.58291 34.48237,-58.22142 109.5932,-12.72845 76.44831,-43.49645 3.95423,-71.17602 -49.42778,-28.99765 -92.26521,5.93134 -81.71494,34.22311 z"
       id="path3354"
       inkscape:connector-curvature="0"
       sodipodi:nodetypes="cccccccccccccccccc"
       inkscape:export-xdpi="49.887215"
       inkscape:export-ydpi="49.887215"
       inkscape:export-filename="C:\Users\iie\Desktop\Mortal_fight_v2.png" />
    <path
       style="fill:#44aa00;fill-opacity:1;fill-rule:evenodd;stroke:none"
       d="m 237.63931,556.39623 80.07303,-49.09829 104.12788,-6.59037 78.03132,39.74898 27.63274,81.05355 -108.30022,81.52189 -163.44122,8.56749 -26.49396,48.1097 -2.50368,86.99291 83.69773,30.97474 55.35912,16.47592 152.13589,-123.49352 49.21188,-37.00466 37.88274,-87.29977 -56.67721,-139.7159 -125.21706,-38.22415 -112.69536,13.18074 -100.50318,64.25613 z"
       id="path3356"
       inkscape:connector-curvature="0"
       sodipodi:nodetypes="ccccccccccccccccccc"
       inkscape:export-xdpi="49.887215"
       inkscape:export-ydpi="49.887215"
       inkscape:export-filename="C:\Users\iie\Desktop\Mortal_fight_v2.png" />
    <path
       style="fill:#338000;fill-rule:evenodd;stroke:none"
       d="m 97.025262,600.34711 11.788328,-22.52101 49.61659,-10.55672 -37.82825,16.18697 z"
       id="path3358"
       inkscape:connector-curvature="0"
       inkscape:export-xdpi="49.887215"
       inkscape:export-ydpi="49.887215"
       inkscape:export-filename="C:\Users\iie\Desktop\Mortal_fight_v2.png" />
    <path
       style="fill:#44aa00;fill-rule:evenodd;stroke:none"
       d="m 112.80516,577.00157 33.43713,-9.51624 65.09224,-24.26526 31.31827,13.72372 2.46324,18.65022 -18.65021,16.53885 -127.032537,34.48529 -13.371837,-11.96429 z"
       id="path3336"
       inkscape:connector-curvature="0"
       sodipodi:nodetypes="ccccccccc"
       inkscape:export-xdpi="49.887215"
       inkscape:export-ydpi="49.887215"
       inkscape:export-filename="C:\Users\iie\Desktop\Mortal_fight_v2.png" />
    <path
       style="fill:#112b00;fill-rule:evenodd;stroke:none"
       d="m 92.043605,612.19063 5.278349,-4.57457 0.351895,6.33403 -3.167018,1.05567 z"
       id="path3338"
       inkscape:connector-curvature="0"
       inkscape:export-xdpi="49.887215"
       inkscape:export-ydpi="49.887215"
       inkscape:export-filename="C:\Users\iie\Desktop\Mortal_fight_v2.png" />
    <path
       style="fill:#000000;fill-rule:evenodd;stroke:none"
       d="m 115.26839,588.61394 -4.57459,3.51892 -4.893,7.90209 7.88407,1.59896 9.50106,-2.63917 5.63025,-11.26052 z"
       id="path3340"
       inkscape:connector-curvature="0"
       sodipodi:nodetypes="ccccccc"
       inkscape:export-xdpi="49.887215"
       inkscape:export-ydpi="49.887215"
       inkscape:export-filename="C:\Users\iie\Desktop\Mortal_fight_v2.png" />
    <path
       style="fill:#55d400;fill-rule:evenodd;stroke:none"
       d="m 101.19275,626.26626 2.28729,2.11135 40.29149,-8.79728 79.70323,-14.07563 25.16018,-21.46532 -2.28729,-21.81722 -13.54779,-2.81513 -10.9086,31.67017 -74.64873,21.72858 z"
       id="path3342"
       inkscape:connector-curvature="0"
       sodipodi:nodetypes="cccccccccc"
       inkscape:export-xdpi="49.887215"
       inkscape:export-ydpi="49.887215"
       inkscape:export-filename="C:\Users\iie\Desktop\Mortal_fight_v2.png" />
    <path
       style="fill:#d4ff2a;fill-rule:evenodd;stroke:none"
       d="m 111.70992,591.52022 -1.24412,3.1103 2.1772,4.66544 4.47885,1.36854 4.91428,-4.47885 0.0622,-5.90955 -3.919,-1.99061 z"
       id="path3344"
       inkscape:connector-curvature="0"
       inkscape:export-xdpi="49.887215"
       inkscape:export-ydpi="49.887215"
       inkscape:export-filename="C:\Users\iie\Desktop\Mortal_fight_v2.png" />
    <path
       style="fill:#22280b;fill-rule:evenodd;stroke:none"
       d="m 114.13595,590.4627 0.12449,4.91429 2.61265,4.97649 -0.37322,-5.16312 -2.48826,-4.91426 z"
       id="path3346"
       inkscape:connector-curvature="0"
       inkscape:export-xdpi="49.887215"
       inkscape:export-ydpi="49.887215"
       inkscape:export-filename="C:\Users\iie\Desktop\Mortal_fight_v2.png" />
    <path
       style="fill:#55d400;fill-opacity:1;fill-rule:evenodd;stroke:none"
       d="m 108.47521,596.24787 -0.0621,2.42604 4.16782,2.79928 -7.15371,-1.43074 z"
       id="path3348"
       inkscape:connector-curvature="0"
       inkscape:export-xdpi="49.887215"
       inkscape:export-ydpi="49.887215"
       inkscape:export-filename="C:\Users\iie\Desktop\Mortal_fight_v2.png" />
    <path
       style="fill:#55d400;fill-opacity:1;fill-rule:evenodd;stroke:none"
       d="m 122.72039,588.03667 2.67486,1.11972 -0.68426,6.46941 3.91899,-8.3356 z"
       id="path3350"
       inkscape:connector-curvature="0"
       inkscape:export-xdpi="49.887215"
       inkscape:export-ydpi="49.887215"
       inkscape:export-filename="C:\Users\iie\Desktop\Mortal_fight_v2.png" />
    <path
       style="fill:#55d400;fill-opacity:1;fill-rule:evenodd;stroke:none"
       d="m 101.88137,595.12817 11.69473,-15.67594 28.36597,-4.97648 -27.12185,7.96238 z"
       id="path3352"
       inkscape:connector-curvature="0"
       inkscape:export-xdpi="49.887215"
       inkscape:export-ydpi="49.887215"
       inkscape:export-filename="C:\Users\iie\Desktop\Mortal_fight_v2.png" />
    <path
       style="fill:#44aa00;fill-opacity:1;fill-rule:evenodd;stroke:none"
       d="m 525.13777,781.01081 83.55723,20.86305 33.92267,31.64749 11.86266,54.04105 -21.08918,32.95183 -279.43176,-1.31807 -110.54464,-19.41008 -30.86633,-63.35548 14.60852,-57.29755 111.56696,-14.34803 z"
       id="path3362"
       inkscape:connector-curvature="0"
       sodipodi:nodetypes="ccccccccccc"
       inkscape:export-xdpi="49.887215"
       inkscape:export-ydpi="49.887215"
       inkscape:export-filename="C:\Users\iie\Desktop\Mortal_fight_v2.png" />
  </g>
</svg>
