<svg version="1.1" xmlns="http://www.w3.org/2000/svg" xmlns:xlink="http://www.w3.org/1999/xlink" width="389.35512" height="211.1572" viewBox="0,0,389.35512,211.1572"><g transform="translate(-45.32243,-74.39732)"><g data-paper-data="{&quot;isPaintingLayer&quot;:true}" stroke-dasharray="" stroke-dashoffset="0" style="mix-blend-mode: normal"><path d="M239.29959,246.0936c74.64884,1.04301 65.40065,-67.68384 122.75402,-95.93113c46.34521,-22.82608 46.14201,41.72511 28.11332,70.69643c-23.0194,36.99156 -58.58975,60.35005 -98.73797,62.74654c-41.85552,2.49836 -84.47436,-0.78347 -126.4535,-0.28258c-26.65331,0.31775 -55.22678,-0.44146 -77.49467,-19.05791c-9.04821,-7.56422 -46.28823,-68.58132 -40.56321,-70.6455c21.12396,-7.62122 64.83406,42.48068 86.79123,48.14203z" fill="#3f7f00" fill-rule="nonzero" stroke="#000000" stroke-width="2" stroke-linecap="butt" stroke-linejoin="miter" stroke-miterlimit="10"/><path d="M232.00412,260.9928c43.3498,-5.81124 157.21573,-33.27531 140.43385,-15.49076c-21.42746,22.70791 -54.53787,37.04693 -91.90957,38.51805c-38.96093,1.53366 -78.63238,-0.48094 -117.70838,-0.17346c-24.81006,0.19505 -41.40686,-4.69356 -41.40686,-4.69356c0,0 67.24116,-12.34903 110.59097,-18.16027z" fill="#f4c244" fill-rule="nonzero" stroke="#000000" stroke-width="2" stroke-linecap="butt" stroke-linejoin="miter" stroke-miterlimit="10"/><path d="M304.695,139.8886c0,-35.63054 28.86074,-64.49128 64.49128,-64.49128c35.63054,0 64.49128,28.86073 64.49128,64.49128c0,35.63055 -28.86074,64.49128 -64.49128,64.49128c-35.63054,0 -64.49128,-28.86073 -64.49128,-64.49128z" fill="#3f7f00" fill-rule="nonzero" stroke="#000000" stroke-width="2" stroke-linecap="round" stroke-linejoin="miter" stroke-miterlimit="10"/><path d="M365.50866,130.72287c0,12.94169 -10.45003,23.43436 -23.33739,23.43436c-12.88878,0 -23.33749,-10.49268 -23.33749,-23.43436c0,-12.94301 10.44872,-23.43569 23.33749,-23.43569c12.88736,0 23.33739,10.49268 23.33739,23.43569z" fill="#ffffff" fill-rule="nonzero" stroke="#010101" stroke-width="2" stroke-linecap="round" stroke-linejoin="round" stroke-miterlimit="4"/><path d="M355.50383,135.58918c0,4.16012 -3.35755,7.53314 -7.50151,7.53314c-4.14265,0 -7.5002,-3.37303 -7.5002,-7.53314c0,-4.16012 3.35755,-7.53314 7.5002,-7.53314c4.14396,0 7.50151,3.37303 7.50151,7.53314z" fill="#010101" fill-rule="nonzero" stroke="none" stroke-width="2" stroke-linecap="butt" stroke-linejoin="miter" stroke-miterlimit="10"/><path d="M422.34234,130.72287c0,12.94169 -10.45003,23.43436 -23.3375,23.43436c-12.88867,0 -23.33606,-10.49268 -23.33606,-23.43436c0,-12.94301 10.44872,-23.43569 23.33606,-23.43569c12.88745,0 23.3375,10.49268 23.3375,23.43569z" fill="#ffffff" fill-rule="nonzero" stroke="#010101" stroke-width="2" stroke-linecap="round" stroke-linejoin="round" stroke-miterlimit="4"/><path d="M400.068,135.58918c0,4.16012 -3.35887,7.53314 -7.50284,7.53314c-4.14274,0 -7.50029,-3.37303 -7.50029,-7.53314c0,-4.16012 3.35754,-7.53314 7.50029,-7.53314c4.14396,0 7.50284,3.37303 7.50284,7.53314z" fill="#010101" fill-rule="nonzero" stroke="none" stroke-width="2" stroke-linecap="butt" stroke-linejoin="miter" stroke-miterlimit="10"/><path d="M393.37359,162.17188c0,12.74581 -10.59924,23.07832 -23.67404,23.07832c-13.07468,0 -23.67394,-10.33252 -23.67394,-23.07832" fill="none" fill-rule="evenodd" stroke="#000000" stroke-width="2" stroke-linecap="round" stroke-linejoin="round" stroke-miterlimit="4"/><path d="M345.33165,166.68542l13.46971,16.54322l-19.13504,3.66827z" fill="#ffffff" fill-rule="nonzero" stroke="#000000" stroke-width="2" stroke-linecap="butt" stroke-linejoin="miter" stroke-miterlimit="10"/><path d="M399.1347,187.89691l-19.13504,-3.66827l13.46972,-16.54322z" data-paper-data="{&quot;index&quot;:null}" fill="#ffffff" fill-rule="nonzero" stroke="#000000" stroke-width="2" stroke-linecap="butt" stroke-linejoin="miter" stroke-miterlimit="10"/><path d="M360.41511,214.12869l-0.66667,-30.66667h19.33334l0.66667,30.66667l11.93333,14.53333l-21.56407,-7.62008l-21.03593,8.42008z" fill="#bf0000" fill-rule="nonzero" stroke="#000000" stroke-width="2" stroke-linecap="butt" stroke-linejoin="miter" stroke-miterlimit="10"/><path d="M379.07619,166.96741c-1.34074,2.3228 -3.80038,3.41336 -5.49358,2.43545c-1.69389,-0.97791 -1.97932,-3.65386 -0.63789,-5.97597c1.34005,-2.3228 3.80107,-3.41336 5.49427,-2.43545c1.6932,0.97791 1.97863,3.65386 0.6372,5.97597z" fill="#000000" fill-rule="nonzero" stroke="none" stroke-width="2.5" stroke-linecap="butt" stroke-linejoin="miter" stroke-miterlimit="10"/><path d="M360.57258,160.99144c1.69389,-0.97791 4.15353,0.11265 5.49427,2.43545c1.34212,2.32211 1.0567,4.99806 -0.6372,5.97597c-1.6932,0.97791 -4.15353,-0.11265 -5.49427,-2.43545c-1.34074,-2.32211 -1.05531,-4.99806 0.6372,-5.97597z" fill="#000000" fill-rule="nonzero" stroke="none" stroke-width="2.5" stroke-linecap="butt" stroke-linejoin="miter" stroke-miterlimit="10"/></g></g></svg>