<?xml version="1.0" encoding="utf-8"?>
<!-- Generator: Adobe Illustrator 24.3.0, SVG Export Plug-In . SVG Version: 6.00 Build 0)  -->
<svg version="1.1"
	 id="svg1548" xmlns:cc="http://creativecommons.org/ns#" xmlns:dc="http://purl.org/dc/elements/1.1/" xmlns:inkscape="http://www.inkscape.org/namespaces/inkscape" xmlns:rdf="http://www.w3.org/1999/02/22-rdf-syntax-ns#" xmlns:sodipodi="http://sodipodi.sourceforge.net/DTD/sodipodi-0.dtd" xmlns:svg="http://www.w3.org/2000/svg"
	 xmlns="http://www.w3.org/2000/svg" xmlns:xlink="http://www.w3.org/1999/xlink" x="0px" y="0px" viewBox="0 0 487.4 429.6"
	 style="enable-background:new 0 0 487.4 429.6;" xml:space="preserve">
<style type="text/css">
	.st0{fill:#231F20;}
</style>
<sodipodi:namedview  bordercolor="#666666" borderopacity="1.0" id="base" inkscape:current-layer="layer1" inkscape:cx="439.24818" inkscape:cy="270.68509" inkscape:document-rotation="0" inkscape:document-units="mm" inkscape:pageopacity="0.0" inkscape:pageshadow="2" inkscape:window-height="1001" inkscape:window-maximized="1" inkscape:window-width="1920" inkscape:window-x="-9" inkscape:window-y="-9" inkscape:zoom="1.4611074" pagecolor="#ffffff" showgrid="false">
	</sodipodi:namedview>
<g id="layer1" transform="translate(-21.092586,-85.931303)" inkscape:groupmode="layer" inkscape:label="Layer 1">
	<g id="g2188" transform="translate(-30.241045,4.1649344)">
		<path id="path2125" class="st0" d="M472.9,510.8c-8.3-0.7-12.7-1.8-14.6-3.9c-2.6-2.8-0.5-3.7,10.1-4.9c3.5-0.4,8.7-2.2,17.8-6.1
			c2.5-1.1,3.8-2.2,4.3-3.6c0.4-1.1,1.1-2.6,1.5-3.3c0.5-0.8,0.5-2.2,0-3.7c-0.4-1.4-0.7-3.7-0.7-5.1c0-3.6-2.5-8.9-4.6-9.7
			c-0.9-0.4-2.4-1.7-3.2-3c-1.9-2.9-9.6-6.4-18.4-8.5c-3.5-0.8-8.4-2.2-10.9-3c-8.4-2.8-18-5-25.1-5.9c-3.9-0.5-10.2-1.3-13.9-1.9
			c-24.8-3.8-22.7-3.7-44.8-2.6c-26,1.3-106.9,1.4-115.7,0.2c-3.3-0.5-9.4-1.3-13.5-1.7c-13.7-1.5-26.2-4.8-33.3-8.7
			c-6-3.3-12.9-8.6-15.3-11.6c-1-1.2-3-3.8-4.5-5.6c-1.5-1.9-3.2-4.8-3.6-6.5c-0.4-1.7-1.3-4.7-1.9-6.5c-2.5-7.9-3.3-12.5-3.3-18.6
			c0-7.8,1-14.2,2.7-17.8c2.3-4.8,2-4.9-13.7-4.9c-21.9,0-31.2-0.9-43-4.1c-5.6-1.5-11.7-3-13.7-3.4c-6.5-1.2-16.6-4.6-23.5-8
			c-3.8-1.8-7.1-3.3-7.3-3.3c-0.3,0-2.4-1.2-4.7-2.7c-11.7-7.5-19.5-17.2-23.4-28.8c-1.5-4.6-1.6-5.6-0.9-15.4
			c0.7-10.2,1.3-14,3.5-23.3c0.6-2.5,1.1-5.5,1.1-6.7c0-2.1,2.9-10.7,4.9-14.6c4.1-8,10.5-16.3,14.8-19.1c1.8-1.2,4.4-3,5.7-4
			c3.4-2.5,10-5.1,15.5-6.2c5.7-1.1,17.5-3.5,22.9-4.7c6-1.4,13.6-4.8,15.4-6.8c0.8-1,2.5-3,3.7-4.5c1.2-1.5,3.4-4,4.8-5.7
			c2.2-2.6,6-10.3,6-12.1c0-0.3,1.2-2.5,2.7-4.7c2.8-4.2,4.7-8.6,4.7-11c0-0.8,0.5-3,1.2-4.9c5.5-16.9,6.6-20.1,7.5-21.1
			c1.4-1.6,4.6-8.2,5.2-10.8c0.3-1.2,1.3-3.4,2.4-4.9c1-1.5,1.8-3,1.8-3.5c0-2.2,6.5-11,11.1-14.8c4.2-3.6,6.2-4.7,12-6.6
			c3.8-1.2,7.9-2.2,9-2.2c6.7,0,25.4-5.5,34.6-10.1c5.9-3,11-4.9,17.7-6.9c2.5-0.7,5.7-2.1,7.2-3.1c4-2.7,9.1-4,15.6-4
			c4.7,0,6.4,0.4,9.4,1.9c4.3,2.2,16.2,7.1,17.4,7.1c0.4,0,4.4,1.7,8.7,3.7c6.6,3.1,8.2,4.2,9.8,6.7c1,1.6,1.9,3.6,1.9,4.4
			c0,0.9,0.9,1.7,2.4,2.3c4.8,1.8,11.5,4.7,12.3,5.4c4.6,3.6,28.8,5.7,37.4,3.3c2.5-0.7,5-1.8,5.7-2.4c1.6-1.5,7.4-2.3,7.4-1
			c0,0.5-1.3,1.5-3,2.2c-3.7,1.6-3.8,3.1-0.3,5c5,2.7,5.5,6.2,0.6,3.9c-1.6-0.8-4.5-1.3-7.7-1.3c-2.8,0-8.2-0.5-12.1-1.1
			c-3.9-0.6-11.1-1.3-16.1-1.6c-5.4-0.3-11-1.1-13.8-1.9c-2.6-0.8-5.8-1.4-7.1-1.4c-3.5,0-7.1,2.2-9,5.6c-1.2,2.1-2.8,3.5-5.4,4.8
			c-2,1-3.9,2-4.1,2.3c-0.6,0.9-10.3,5.2-15.9,7.2c-8.5,2.9-14.6,3.5-34,3.2c-12.7-0.2-19.8-0.7-24-1.5c-8.4-1.7-20.1-2.4-25.3-1.4
			c-3.7,0.7-10.6,3.1-18,6.3c-2.2,0.9-7.3,8.1-10.1,14c-2.6,5.5-4.5,11.9-5.8,19.5c-2.2,12.7-4,21.3-5.2,24.4
			c-0.6,1.6-1.2,3.8-1.2,4.7c0,0.9-1.8,5.1-4,9.2c-6.8,12.9-19.4,24.4-36,32.6c-6.2,3.1-11,6-13.6,8.4c-2.2,2-5,4.4-6.3,5.4
			c-5,3.7-10.3,15.4-8.5,18.7c0.5,0.8,0.8,2.4,0.8,3.5c0,5,9.1,9.5,24.3,12c21.7,3.6,29.1,3.2,45.3-2.3c14.6-4.9,19.6-7.6,29.8-15.7
			c4.9-3.9,11.2-8.6,13.9-10.4c2.7-1.8,5.7-4.2,6.7-5.3c1-1.1,3-2.7,4.5-3.6c4-2.4,9.1-6.7,21-17.8c6-5.6,13.1-11.7,15.8-13.7
			c24.5-18.1,34.1-24,48.2-29.4c15.4-5.9,28.9-10.4,34.7-11.7c13.4-2.9,46.7-4.1,56.1-1.9c2.6,0.6,6.9,1.4,9.7,1.9
			c11,1.8,42.9,13.3,58.3,21c5.3,2.6,10.9,6.3,12.7,8.2c0.2,0.2,2.4,1.7,4.9,3.3c8.9,5.8,17.5,15.6,23.3,26.6c1.2,2.4,3.2,5.5,4.3,7
			c1.1,1.5,2,3.1,2,3.6c0,0.5,0.8,2.5,1.8,4.4c4.5,8.5,6.3,14.1,9.4,29.4c1.6,8,2.3,29.6,1.2,38.6c-0.6,5.1-3.2,13-5.6,16.9
			c-3.6,6-7.9,12.1-9,12.9c-0.7,0.5-2,2-2.8,3.2c-2.7,4.3-14.2,15.6-21.7,21.2c-7.6,5.8-17.5,11.4-20,11.4c-0.8,0-4,0.9-7.2,2
			c-5.8,2-6,2-26.1,2c-16.5,0-22.4-0.3-31.9-1.6c-6.4-0.9-14.7-1.8-18.4-2.1c-8.8-0.6-16.6-2.2-27.3-5.4c-4.8-1.4-10-3-11.7-3.4
			c-1.6-0.4-4.9-1.2-7.1-1.8c-2.3-0.6-6.3-1.7-9-2.5c-5.3-1.6-26.8-6.1-38.2-7.9c-13.2-2.2-30.5-1.6-39.8,1.4
			c-4.5,1.4-10.4,5.6-10.9,7.8c-1,3.8,1.6,7.4,7.9,11.1c10,5.9,9.7,5.9,47,6.2c21.9,0.2,37.4,0.7,46.1,1.5
			c14.1,1.3,45.7,6.2,54.8,8.6c12.7,3.3,17.2,4.4,24.3,6c4.1,0.9,10.4,2.7,13.9,3.8c3.5,1.2,9.9,2.8,14.2,3.7c9,1.7,14.3,3,15.4,3.7
			c0.4,0.3,2.4,1.1,4.5,1.9c8.1,2.9,19.6,10.1,25.5,15.9c5,4.9,11.6,13.8,14.1,18.9c1.7,3.5,1.6,10.8-0.3,16.6
			c-0.8,2.6-1.5,5-1.5,5.4s-0.8,1.8-1.9,3.2c-1,1.4-1.9,2.8-1.9,3.3c0,1.6-8.4,9.9-12.3,12.1c-5.7,3.2-17.2,7.6-19.7,7.5
			C480.7,511.3,476.6,511.1,472.9,510.8L472.9,510.8z M439.7,299.9c2.6-1.3,6.6-6.3,6.6-8.2c0-1.7-2.4-4.3-6.2-6.9
			c-6.5-4.5-14.8-6.3-34.8-7.8c-18.1-1.3-29.8-0.9-43.8,1.6c-3.1,0.6-8.5,1.4-12,1.9c-7,1-27.7,5.7-30.5,6.9
			c-4.6,2.1-1.6,2.4,22.8,2.5c18.1,0,27.4,0.4,35.4,1.3c16.3,1.9,18.5,2.3,26.1,4.9c3.8,1.3,10.9,3.2,15.7,4.2
			C429.1,302.4,435.1,302.3,439.7,299.9z"/>
	</g>
</g>
</svg>
