<svg width="702.9999999999999" height="398" xmlns="http://www.w3.org/2000/svg" xmlns:undefined="http://www.inkscape.org/namespaces/inkscape">
 <defs>
  <filter color-interpolation-filters="sRGB" id="imagebot_49">
   <feGaussianBlur  stdDeviation="1.83778" id="imagebot_89"/>
  </filter>
  <filter color-interpolation-filters="sRGB" id="imagebot_38">
   <feGaussianBlur  stdDeviation="1.51188" id="imagebot_88"/>
  </filter>
  <linearGradient x1="0.50442" y1="-0.34948" x2="0.50442" y2="1.4123" id="imagebot_32">
   <stop stop-color="#009b00" offset="0" id="imagebot_86"/>
   <stop stop-color="#009b00" stop-opacity="0.49804" offset="0.5" id="imagebot_85"/>
   <stop stop-color="#008100" stop-opacity="0.62162" offset="1" id="imagebot_84"/>
  </linearGradient>
  <filter x="-0.23325" y="-0.25446" color-interpolation-filters="sRGB" width="1.4665" height="1.5089" id="imagebot_12">
   <feGaussianBlur  stdDeviation="4.08467" id="imagebot_83"/>
  </filter>
  <filter x="-0.27665" y="-0.3018" color-interpolation-filters="sRGB" width="1.5533" height="1.6036" id="imagebot_9">
   <feGaussianBlur  stdDeviation="4.8446" id="imagebot_82"/>
  </filter>
 </defs>
 <g label="Layer2" id="imagebot_2">
  <path transform="translate(-8.46051 -0.339996) matrix(1 0 0 1 -143.54 -349.91)" label="Layer2" fill-rule="evenodd" stroke="#000000" stroke-width="3" fill="#005c00" d="M642.06,481.84C628.615,484.1168 613.759,485.5275 598.904,485.5275C584.915,485.5275 570.935,484.2917 558.123,482.2463C565.4078,496.0043 554.4782,506.3493 549.548,516.6183C564.956,517.0014 588.947,518.2226 604.342,518.9654C614.903,519.47498 636.755,520.322 650.636,521.2779C641.3751,508.1319 637.626,494.9859 642.061,481.8399L642.06,481.84z" id="imagebot_79"/>
  <g label="Layer2" transform="translate(-8.46051 -0.339996) matrix(1.2141 0 0 1.2141 -43.31 -375.364)" id="imagebot_72">
   <g id="imagebot_76">
    <path stroke="#000000" stroke-linecap="round" stroke-width="2.471" fill="#ffffff" d="M411.73,332.68C411.73,341.9194 404.24,349.409 395.001,349.409C385.7616,349.409 378.272,341.919 378.272,332.68C378.272,323.4406 385.762,315.951 395.001,315.951C404.2404,315.951 411.73,323.441 411.73,332.68z" id="imagebot_78"/>
    <path stroke="#000000" stroke-linecap="round" stroke-width="3.6415" fill="#000000" transform="matrix(.67858 0 0 .67858 133.53 108.72)" d="M400.58,332.68C400.58,335.7598 398.0833,338.2565 395.0035,338.2565S389.427,335.7598 389.427,332.68S391.9237,327.1035 395.0035,327.1035S400.58,329.6002 400.58,332.68z" id="imagebot_77"/>
   </g>
   <g transform="matrix(-1 0 0 1 824 0)" id="imagebot_73">
    <path stroke="#000000" stroke-linecap="round" stroke-width="2.471" fill="#ffffff" d="M411.73,332.68C411.73,341.9194 404.24,349.409 395.001,349.409C385.7616,349.409 378.272,341.919 378.272,332.68C378.272,323.4406 385.762,315.951 395.001,315.951C404.2404,315.951 411.73,323.441 411.73,332.68z" id="imagebot_75"/>
    <path stroke="#000000" stroke-linecap="round" stroke-width="3.6415" fill="#000000" transform="matrix(.67858 0 0 .67858 133.53 108.72)" d="M400.58,332.68C400.58,335.7598 398.0833,338.2565 395.0035,338.2565S389.427,335.7598 389.427,332.68S391.9237,327.1035 395.0035,327.1035S400.58,329.6002 400.58,332.68z" id="imagebot_74"/>
   </g>
  </g>
  <path transform="translate(-8.46051 -0.339996) matrix(1 0 0 1 -143.54 -349.91)" label="Layer2" stroke="#000000" stroke-linecap="round" stroke-width="3" fill="#008000" d="M658.59,746.66C734.584,746.45062 792.78,733.793 829.28,719.222C853.54,668.517 825.7239,630.517 772.842,606.722L624.062,621.284C586.505,623.1049 548.811,624.6717 510.372,624.909C471.935,624.67167 434.241,623.1049 396.682,621.284L247.902,606.722C195.021,630.517 167.205,668.517 191.464,719.222C227.966,733.792 285.398,745.002 361.394,745.211L510.384,744.311L658.59,746.66z" id="imagebot_71"/>
  <path transform="translate(0 1.25) matrix(1 0 0 1 -152.001 -350.25)" label="Layer2" stroke="#000000" stroke-linecap="round" stroke-width="3" fill="#008000" d="M511.91,516.69C480.074,516.6776 448.21,517.4493 416.41,518.9712C375.361,520.9358 293.44,527.815 293.44,527.815C249.733,547.482 226.733,564.469 246.784,606.377C247.11931,606.51084 247.47567,606.6501 247.8152,606.78325C247.8494,606.76785 247.8748,606.73615 247.9089,606.72075L396.6889,621.28275C434.2459,623.10365 471.9399,624.67045 510.3789,624.90775C548.8159,624.67042 586.5099,623.10365 624.0689,621.28275L772.8489,606.72075C772.8831,606.73615 772.9085,606.76785 772.9426,606.78325C773.27913,606.65104 773.64166,606.5096 773.9738,606.377C794.0248,564.469 771.0248,547.481 727.3178,527.815C727.3178,527.815 645.3968,520.9519 604.3478,518.9712C573.5588,517.4856 542.7358,516.702 511.9098,516.69L511.91,516.69z" id="imagebot_70"/>
  <path transform="translate(0 -2.5) matrix(1 0 0 1 -152.001 -350.25)" label="Layer2" stroke="#000000" stroke-linecap="round" stroke-width="3" fill="#008000" d="M 589.2803495365614 390.1119485012124 C 571.5256248221287 390.4053992173985 552.8702257007778 391.9350060946746 537.4299343575142 397.9267209332415 C 516.3201697129947 406.4030868467688 482.14673916393593 469.72919354520457 504.2860046410243 484.23203715312843 C 522.5582562033286 496.20200137622516 561.3061354356141 506.7317116277614 599.9685005750111 506.7317116277614 C 638.6319762870431 506.7317116277614 677.3787449466939 496.20200137622516 695.6509965089982 484.23203715312843 C 717.7913725587214 469.7278195192825 683.6179420096627 406.40171282084674 662.5070667925081 397.9267209332415 C 646.9968093732447 391.90766297882453 628.2414587147513 390.3955474515369 610.414546779049 390.1119485012124 L 589.2803495365614 390.1119485012124 z" id="imagebot_67"/>
  <path transform="translate(-8.46051 -0.339996) matrix(1 0 0 1 -143.54 -349.91)" label="Layer2" stroke="#000000" stroke-linecap="round" stroke-width="3" fill="#008000" d="M594.28,433.37C585.5017,433.48727 576.278,434.09855 568.644,436.493C558.207,439.8804 541.31,465.187 552.257,470.983C561.2912,475.7665 580.449,479.9745 599.565,479.9745S637.839,475.7665 646.873,470.983C657.82,465.1869 640.9233,439.88 630.486,436.493C622.8172,434.0876 613.544,433.4834 604.73,433.37L594.28,433.37z" id="imagebot_65"/>
  <path transform="translate(-8.46051 -0.339996) matrix(1 0 0 1 -143.54 -349.91)" label="Layer2" fill="#006500" d="M551.71,458.11C550.3836,463.5569 550.85623,468.317 554.4232,470.526C563.0428,475.8645 581.0332,479.1109 599.2722,479.1109S636.0852,475.8645 644.7052,470.526C648.2722,468.3168 648.7449,463.5572 647.4184,458.11C646.87655,459.4768 645.9887,460.6282 644.7052,461.4232C636.0857,466.7617 617.8032,471.4322 599.5642,471.4322S563.0432,466.7614 554.4232,461.4232C553.1397,460.62826 552.2518,459.4768 551.71,458.11z" id="imagebot_64"/>
  <path transform="translate(-8.46051 -0.339996) matrix(1 0 0 1 -143.54 -349.91)" label="Layer2" fill-rule="evenodd" stroke="#000000" stroke-linecap="round" stroke-width="3" fill="#008000" d="M567.53,460.93C589.858,477.143 611.224,477.32 631.595,460.93" id="imagebot_63"/>
  <path transform="translate(-8.46051 -0.339996) matrix(1 0 0 1 -143.54 -349.91)" label="Layer2" fill-rule="evenodd" stroke="#000000" stroke-linecap="round" stroke-width="3" fill="#008000" d="M637,462.28C630.5585,461.58189 630.9372,458.4524 631.9846,455.0844" id="imagebot_62"/>
  <path transform="translate(-8.46051 -0.339996) matrix(1 0 0 1 -143.54 -349.91)" label="Layer2" fill-rule="evenodd" stroke="#000000" stroke-linecap="round" stroke-width="3" fill="#008000" d="M561.49,462.02C567.9315,461.32189 567.5528,458.1924 566.5054,454.8244" id="imagebot_61"/>
  <g label="Layer2" transform="translate(-8.46051 -0.339996) matrix(1 0 0 1 -47.856 -308.447)" id="imagebot_58">
   <path fill-rule="evenodd" stroke="#000000" stroke-linecap="round" stroke-width="3" fill="#008000" d="M503.67,387.89C503.67,390.3854 501.647,392.4084 499.1516,392.4084S494.6332,390.3854 494.6332,387.89S496.6562,383.3716 499.1516,383.3716S503.67,385.3946 503.67,387.89z" id="imagebot_60"/>
   <path fill-rule="evenodd" stroke="#000000" stroke-linecap="round" stroke-width="3" fill="#008000" d="M 512.7068003845216 387.89 C 512.7068003845216 390.3854 510.6838003845215 392.4084 508.18840038452146 392.4084 S 503.6700003845215 390.3854 503.6700003845215 387.89 S 505.6930003845215 383.3716 508.18840038452146 383.3716 S 512.7068003845216 385.3946 512.7068003845216 387.89 z" id="imagebot_59"/>
  </g>
  <g transform="translate(-8.46051 -0.339996) matrix(1 0 0 1 -143.54 -349.91)" label="Layer2" opacity="0.78" id="imagebot_50">
   <path fill-rule="evenodd" fill="#ffff00" d="M213.09,668.81C221.2406,636.453 249.454,627.139 270.443,610.83C267.6798,634.406 254.154,658.684 262.9246,684.641C246.3866,692.0291 240.1176,704.199 228.6556,729.874C216.0346,711.482 211.9566,690.641 213.0896,668.81L213.09,668.81z" id="imagebot_57"/>
   <path fill-rule="evenodd" fill="#ffff00" d="M296.83,689.98C314.859,641.839 330.383,637.826 348.412,618.181C348.3364,643.777 346.9614,670.301 360.153,699.214C349.557,711.768 340.752,723.426 316.618,742.749C303.186,728.577 296.192,711.187 296.83,689.98z" id="imagebot_56"/>
   <path fill-rule="evenodd" fill="#ffff00" d="M389.17,703.17C393.4949,669.805 412.064,647.123 430.066,624.016C438.465,651.72 446.991,679.424 448.535,707.127C441.482,718.894 436.153,730.231 415.554,745.385C400.158,733.514 394.179,718.503 389.169,703.17L389.17,703.17z" id="imagebot_55"/>
   <path fill-rule="evenodd" fill="#ffff00" d="M477.56,705.81C480.5255,677.996 489.428,652.434 500.68,626.277C508.8786,654.275 520.384,680.999 522.414,709.768C517.3167,720.271 508.277,731.9 497.349,744.068C487.326,732.458 480.077,719.923 477.561,705.81L477.56,705.81z" id="imagebot_54"/>
   <path fill-rule="evenodd" fill="#ffff00" d="M558.03,707.06C561.1219,678.891 569.895,651.354 580.457,624.015C590.535,650.412 603.692,675.782 606.842,704.488C601.5737,721.647 591.513,734.013 580.457,745.384C570.6629,733.479 561.265,721.425 558.03,707.06z" id="imagebot_53"/>
   <path fill-rule="evenodd" fill="#ffff00" d="M645.1,700.54C648.9946,667.227 657.144,644.71 666.653,618.615C681.349,643.822 697.663,666.595 705.784,692.624C700.5356,712.345 689.86,729.845 675.442,745.393C662.598,732.489 651.306,718.421 645.1,700.539L645.1,700.54z" id="imagebot_52"/>
   <path fill-rule="evenodd" fill="#ffff00" d="M741.41,687.34C734.686,661.919 738.5193,637.002 741.6571,610.759C766.1581,626.611 786.5621,643.56 799.4561,670.19C801.1955,693.613 792.9255,714.256 779.6681,733.513C765.1761,720.358 750.2411,707.773 741.4101,687.34L741.41,687.34z" id="imagebot_51"/>
  </g>
  <path transform="translate(-8.46051 -0.339996) matrix(1 0 0 1 -143.54 -349.91)" label="Layer2" opacity="0.74519" filter="url(#imagebot_49)" fill="#003f00" d="M184.91,666.53C180.5759,682.043 182.2563,699.455 191.4725,718.718C227.9745,733.288 285.4155,744.509 361.4125,744.718L510.3825,743.81175L658.6025,746.15555C734.5965,745.94617 792.7925,733.28855 829.2925,718.71755C838.5087,699.45555 840.1895,682.04355 835.855,666.52955C834.3965,672.30275 832.2348,678.25455 829.2925,684.40455C792.7905,698.97455 734.5995,711.63255 658.6025,711.84255L510.3825,709.49255L361.4125,710.40255C285.4185,710.19317 227.9725,698.97255 191.4725,684.40255C188.5302,678.25295 186.3685,672.30055 184.91,666.52755L184.91,666.53z" id="imagebot_48"/>
  <g transform="translate(-8.46051 -0.339996) matrix(1 0 0 1 -143.54 -349.91)" label="Layer2" opacity="0.78" id="imagebot_39">
   <path fill-rule="evenodd" fill="#ffff00" d="M290.23,575.87C290.40512,591.332 294.1109,601.113 302.763,611.489C325.883,599.8 327.302,588.478 338.382,578.508C341.0366,555.704 343.4026,541.008 335.7436,525.079C315.8966,539.312 304.8006,556.359 290.2306,575.869L290.23,575.87z" id="imagebot_47"/>
   <path fill-rule="evenodd" fill="#ffff00" d="M357.51,581.14C364.3688,596.07 369.104,607.296 382.9,618.758C399.61,610.8696 402.144,605.296 418.854,583.779C412.9287,559.367 412.9849,539.676 398.406,520.456C379.906,538.894 370.793,557.485 357.51,581.141L357.51,581.14z" id="imagebot_46"/>
   <path fill-rule="evenodd" fill="#ffff00" d="M434.69,583.78C442.0396,555.824 453.784,536.658 466.352,519.138C479.235,538.553 491.401,558.508 497.354,583.121C490.4631,596.313 485.451,609.506 465.033,622.698C448.975,607.459 440.283,593.659 434.691,583.781L434.69,583.78z" id="imagebot_45"/>
   <path fill-rule="evenodd" fill="#ffff00" d="M508.56,583.78C510.9342,562.233 522.855,540.685 535.604,519.138C548.883,540.026 562.533,560.914 567.266,581.801C565.4441,599.889 553.573,612.234 539.562,623.357C525.822,611.527 513.594,599.092 508.56,583.78z" id="imagebot_44"/>
   <path fill-rule="evenodd" fill="#ffff00" d="M587.72,583.12C586.7145,559.478 596.2621,539.355 605.53,519.137C627.56,537.841 644.787,557.612 651.043,579.822C643.8065,596.791 635.079,609.802 624.333,619.753C608.198,608.912 593.46,599.159 587.72,583.12z" id="imagebot_43"/>
   <path fill-rule="evenodd" fill="#ffff00" d="M667.53,578.51C664.2439,557.94 665.4366,541.57 674.1261,524.422C694.4021,536.459 704.1171,549.836 720.9591,573.893C720.49057,588.428 715.8997,600.485 703.1491,611.511C684.9001,603.2875 677.0241,593.738 667.5301,578.511L667.53,578.51z" id="imagebot_42"/>
   <path fill-rule="evenodd" fill="#ffff00" d="M727.28,529.53C726.2261,544.525 722.4837,556.87 731.3829,573.525C738.4107,589.123 751.3839,596.304 766.3249,606.203C769.4245,595.298 777.9659,581.878 776.037,567.879C767.882,552 748.429,540.441 727.28,529.53z" id="imagebot_41"/>
   <path fill-rule="evenodd" fill="#ffff00" d="M290.89,529.69C289.0927,544.637 294.0684,557.794 284.9535,574.544C280.3846,583.9091 273.6075,594.01 258.5685,606.865C251.2765,601.7044 246.1315,594.416 240.7585,571.905C266.2715,536.693 272.0045,542.288 290.8895,529.69L290.89,529.69z" id="imagebot_40"/>
  </g>
  <path transform="translate(-8.46051 -0.339996) matrix(1 0 0 1 -143.54 -349.91)" label="Layer2" opacity="0.75" filter="url(#imagebot_38)" fill="#005000" d="M244.09,561.97C237.4459,573.334 237.6332,587.264 246.7775,606.376C247.11281,606.50984 247.46917,606.6491 247.8087,606.78225C247.8429,606.76685 247.8684,606.73515 247.9024,606.71975L396.6824,621.28175C434.2394,623.10265 471.9334,624.66945 510.3724,624.90675C548.8094,624.66942 586.5034,623.10265 624.0624,621.28175L772.8424,606.71975C772.8766,606.73515 772.9021,606.76685 772.9361,606.78225C773.27263,606.65004 773.63516,606.5086 773.9673,606.376C783.1117,587.264 783.2989,573.334 776.6548,561.97C775.85926,563.9617 774.9793,566.0111 773.9673,568.1262C773.63511,568.2588 773.27258,568.40024 772.9361,568.53245C772.902,568.51705 772.8766,568.48535 772.8424,568.46995L624.0624,583.03195C586.5054,584.85285 548.8114,586.41965 510.3724,586.65695C471.9354,586.41962 434.2414,584.85285 396.6824,583.03195L247.9124,568.47195C247.8783,568.48735 247.8528,568.51905 247.8187,568.53445C247.47912,568.4013 247.12276,568.26204 246.7875,568.1282C245.7755,566.0131 244.8955,563.9637 244.1,561.972L244.09,561.97z" id="imagebot_37"/>
  <path label="Layer2" stroke="#000000" stroke-linecap="round" stroke-width="3" fill="#008000" d="M 33.21985 85.54966 L 46.40806 145.71548 C 58.89405 186.90227 69.42019 231.10958 94.34527 253.28537 C 89.83482 213.80399 118.32201 205.55832 131.42954 183.33073 C 118.01013 175.10114 71.48671 151.45784 59.50448 115.10981 C 57.74977 114.59802 23.56776 43.05169 21.9697 43.05057 L 33.21985 85.54966 z" id="imagebot_36"/>
  <path transform="translate(-8.46051 -0.339996) matrix(1 0 0 1 -143.54 -349.91)" label="Layer2" opacity="0.63942" fill="#00ab00" d="M247.91,609.37C205.041,628.66 178.632,657.272 183.098,694.432C186.768,664.894 211.348,641.634 247.91,625.182L396.69,639.744C434.247,641.5649 471.941,643.1317 510.38,643.369C548.817,643.13167 586.511,641.5649 624.07,639.744L772.85,625.182C809.413,641.634 833.993,664.894 837.662,694.432C842.127,657.272 815.718,628.659 772.85,609.37L624.07,623.932C586.513,625.7529 548.819,627.3197 510.38,627.557C471.943,627.31967 434.249,625.7529 396.69,623.932L247.91,609.37z" id="imagebot_33"/>
  <path transform="translate(-8.46051 -0.339996) matrix(1 0 0 1 -143.54 -349.91)" label="Layer2" fill="url(#imagebot_32)" d="M513.56,518.21C482.08,518.1975 450.573,518.97258 419.13,520.5011C378.541,522.4742 291.72,529.7873 291.72,529.7873C254.804,546.8103 234.382,564.2133 242.389,590.8903C246.3,571.7153 268.561,559.6603 297.534,546.4183C297.534,546.4183 378.536,537.4441 419.124,535.4713C450.568,533.9428 482.075,533.1678 513.554,533.1802C544.034,533.1924 574.512,533.97923 604.956,535.4713C645.544,537.4605 726.546,546.4183 726.546,546.4183C755.52,559.6603 775.289,571.7153 779.2,590.8903C784.1493,562.3773 762.402,547.0043 726.546,530.6173C726.546,530.6173 645.543,522.4897 604.956,520.5003C574.512,519.0083 544.034,518.2213 513.554,518.2092L513.56,518.21z" id="imagebot_31"/>
  <path transform="translate(-8.46051 -0.339996) matrix(1 0 0 1 -143.54 -349.91)" label="Layer2" fill-rule="evenodd" fill="#008000" d="M634.51,483.82C623.483,485.8683 611.299,487.1374 599.115,487.1374C587.642,487.1374 576.176,486.0256 565.668,484.1855C571.6427,496.5635 562.6787,505.8695 558.6352,515.1075C571.2722,515.45215 590.9482,516.5508 603.5742,517.219C612.2357,517.67744 630.1582,518.4394 641.5422,519.2994C633.9468,507.4734 630.8722,495.6464 634.5094,483.8204L634.51,483.82z" id="imagebot_16"/>
  <path transform="translate(-8.46051 -0.339996) matrix(1 0 0 1 -143.54 -349.91)" label="Layer2" opacity="0.75" stroke="#005c00" stroke-width="3" fill="none" d="M564.21,496.6C586.662,504.2181 610.306,502.2967 634.423,496.6" id="imagebot_15"/>
  <path transform="translate(-8.46051 -0.339996) matrix(1 0 0 1 -143.54 -349.91)" label="Layer2" opacity="0.75" stroke="#005c00" stroke-width="3" fill="none" d="M559.19,508.47C584.849,517.1764 611.872,514.9805 639.433,508.47" id="imagebot_14"/>
  <path transform="translate(-8.46051 -0.339996) matrix(1 0 0 1 -143.54 -349.91)" label="Layer2" opacity="0.87019" fill-rule="evenodd" filter="url(#imagebot_12)" fill="#00ab00" d="M650.85,417.45C648.55,422.4291 641.6546,425.6942 636.257,429.124C644.4482,433.1941 655.233,442.719 657.271,455.975L678.285,450.1378C674.2499,436.7668 664.186,423.0698 650.85,417.4498L650.85,417.45z" id="imagebot_11"/>
  <path transform="translate(-8.46051 -0.339996) matrix(1 0 0 1 -143.54 -349.91)" label="Layer2" stroke="#000000" stroke-linecap="round" stroke-width="3" fill="#005c00" d="M579.8,351.75C568.583,351.75 559.464,360.8304 559.464,372.048C559.464,373.6373 559.64989,375.1924 559.99516,376.6767C562.07706,367.672 570.16216,360.9697 579.80016,360.9697C589.43766,360.9697 597.48516,367.6721 599.56716,376.6767C599.91244,375.1925 600.09832,373.6374 600.09832,372.048C600.09832,360.831 591.01792,351.75 579.80032,351.75L579.8,351.75zM621.078,351.75C609.861,351.75 600.742,360.8304 600.742,372.048C600.742,373.6373 600.92789,375.1924 601.27316,376.6767C603.35506,367.672 611.44016,360.9697 621.07816,360.9697C630.71566,360.9697 638.76316,367.6721 640.84516,376.6767C641.19043,375.1925 641.37632,373.6374 641.37632,372.048C641.37632,360.831 632.29582,351.75 621.07832,351.75z" id="imagebot_10"/>
  <path label="Layer2" opacity="0.87019" fill-rule="evenodd" filter="url(#imagebot_9)" fill="#009600" transform="translate(-8.46051 -0.339996) matrix(0.45455 0 0 0.45455 178.78 -99.45)" d="M650.85,417.45C648.55,422.4291 641.6546,425.6942 636.257,429.124C638.6904,437.0326 645.777,449.024 657.271,455.975L678.285,450.1378C674.2499,436.7668 664.186,423.0698 650.85,417.4498L650.85,417.45z" id="imagebot_8"/>
  <path transform="translate(-8.46051 -0.339996) matrix(1 0 0 1 -143.54 -349.91)" label="Layer2" opacity="0.87019" stroke="#870000" stroke-linecap="round" stroke-width="6" fill="none" d="M691.13,564.54C673.54,570.0658 667.264,577.332 689.9626,589.056M602.4046,472.316C600.9032,481.4872 599.2944,490.659 602.29966,499.823C608.29066,506.538 616.85766,506.4968 624.79466,509.0679C631.81376,511.3417 636.91266,518.134 639.87266,524.8679C644.15346,534.6054 640.33445,544.6659 639.13298,554.8529C638.58433,559.5049 641.36078,563.7041 644.35658,567.1849C647.99668,571.4141 652.47998,574.4787 658.32558,574.6841C663.72808,575.8609 669.27858,576.0476 674.78458,576.2179" id="imagebot_7"/>
  <path transform="translate(-8.46051 -0.339996) matrix(1 0 0 1 -143.54 -349.91)" label="Layer2" opacity="0.87019" stroke="#de0000" stroke-linecap="round" stroke-width="4" fill="none" d="M691.14,564.73C673.55,570.2558 668.626,576.171 691.32417,587.895M601.96417,472.045C600.46277,481.2162 601.36835,489.923 604.37357,499.087C610.36457,505.802 618.70857,505.2089 626.60757,507.896C633.66337,510.0532 640.39957,516.6125 641.29357,523.914C645.32287,533.0169 644.78697,543.655 641.20787,552.809C641.20287,563.57 650.81877,573.134 661.49087,573.512C666.89337,574.6888 670.69977,575.0935 676.20687,575.2638" id="imagebot_6"/>
  <path transform="translate(-8.46051 -0.339996) matrix(1 0 0 1 -143.54 -349.91)" label="Layer2" opacity="0.87019" stroke="#000000" stroke-linecap="round" fill="none" d="M691.14,564.73C673.55,570.2558 668.626,576.171 691.32417,587.895M601.96417,472.045C600.46277,481.2162 601.36835,489.923 604.37357,499.087C610.36457,505.802 618.70857,505.2089 626.60757,507.896C633.66337,510.0532 638.67757,517.1593 641.29357,523.914C644.77237,532.8956 642.94877,543.136 641.20787,552.809C639.30187,563.4 650.81877,573.134 661.49087,573.512C666.89337,574.6888 670.69977,574.8755 676.20687,575.0458" id="imagebot_5"/>
  <path transform="translate(-8.46051 -0.339996) matrix(1 0 0 1 -143.54 -349.91)" label="Layer2" fill="#00a500" d="M579.75,352.2C572.7626,352.2 567.081,355.6572 567.081,359.9259C567.081,360.53072 567.20185,361.1366 567.41691,361.7014C568.71371,358.2747 573.74631,355.703 579.74991,355.703C585.75321,355.703 590.76191,358.2746 592.05891,361.7014C592.27398,361.13658 592.39482,360.5307 592.39482,359.9259C592.39482,355.6572 586.73762,352.2 579.74982,352.2L579.75,352.2z" id="imagebot_4"/>
  <path transform="translate(-8.46051 -0.339996) matrix(1 0 0 1 -143.54 -349.91)" label="Layer2" fill="#00a500" d="M622.13,352.2C615.1426,352.2 609.461,355.6572 609.461,359.9259C609.461,360.53072 609.58185,361.1366 609.79691,361.7014C611.09371,358.2747 616.12631,355.703 622.12991,355.703C628.13321,355.703 633.14191,358.2746 634.43891,361.7014C634.65398,361.13658 634.77482,360.5307 634.77482,359.9259C634.77482,355.6572 629.11762,352.2 622.12982,352.2L622.13,352.2z" id="imagebot_3"/>
  <title>Layer2</title>
  <polyline id="imagebot_90" points="521.6278576084667,86.52486490172703 521.6278576084667,86.52486490172703 " fill-opacity="null" stroke-opacity="null" stroke-linecap="null" stroke-linejoin="null" stroke-dasharray="null" stroke="#000000" fill="none"/>
  <polyline id="imagebot_91" points="514.1278574646967,71.52486461418698 514.1278574646967,71.52486461418698 " fill-opacity="null" stroke-opacity="null" stroke-linecap="null" stroke-linejoin="null" stroke-dasharray="null" stroke="#000000" fill="none"/>
  <polyline id="imagebot_92" points="581.6278587586268,41.524864039107 581.6278587586268,41.524864039107 " fill-opacity="null" stroke-opacity="null" stroke-linecap="null" stroke-linejoin="null" stroke-dasharray="null" stroke="#000000" fill="none"/>
  <polyline id="imagebot_93" points="466.62785655415337,17.774863583835327 466.62785655415337,17.774863583835327 " fill-opacity="null" stroke-opacity="null" stroke-linecap="null" stroke-linejoin="null" stroke-dasharray="null" stroke="#000000" fill="none"/>
  <polyline id="imagebot_94" points="655.3778601723651,106.52486528511368 655.3778601723651,106.52486528511368 " fill-opacity="null" stroke-opacity="null" stroke-linecap="null" stroke-linejoin="null" stroke-dasharray="null" stroke="#000000" fill="none"/>
 </g>
 <metadata>image/svg+xmlOpenclipart</metadata>
</svg>